<?xml version="1.0" standalone="no"?>
<!DOCTYPE svg PUBLIC "-//W3C//DTD SVG 1.1//EN" "http://www.w3.org/Graphics/SVG/1.1/DTD/svg11.dtd" >
<!--
2014-12-18: Created.
-->
<svg xmlns="http://www.w3.org/2000/svg">
<metadata>
Created by FontForge 20120731 at Thu Dec 18 17:31:49 2014
 By Valter Fatia
Created by Valter Fatia with FontForge 2.0 (http://fontforge.sf.net)
</metadata>
<defs>
<font id="Atlassian-icons" horiz-adv-x="1024" >
  <font-face 
    font-family="Atlassian-icons"
    font-weight="500"
    font-stretch="normal"
    units-per-em="1024"
    panose-1="2 0 6 9 0 0 0 0 0 0"
    ascent="896"
    descent="-128"
    bbox="-4.43004 -130.561 1026.97 900.43"
    underline-thickness="51.2"
    underline-position="-102.4"
    unicode-range="U+F101-F1E2"
  />
    <missing-glyph />
    <glyph glyph-name="uniF102" unicode="&#xf102;" 
d="M69.1387 768.227c0.706055 70.5674 58.3516 127.773 128.896 127.773h635.481c70.4814 0 127.618 -57.7666 127.618 -128.639v-511.277c0 -71.0449 -57.2266 -128.639 -128.393 -128.639h-127.607l-192 -255.617l-192 255.617h-130.648
c-70.5586 0 -127.181 57.7666 -126.479 127.773zM833.517 832h-635.481c-35.4033 0 -64.5439 -28.8965 -64.8994 -64.4141l-5.13281 -513.007c-0.34668 -34.6523 27.7607 -63.1338 62.4834 -63.1338h162.648l159.433 -223.445l160.567 223.445h159.607
c35.6836 0 64.3926 28.8037 64.3926 64.6387v511.277c0 35.7129 -28.6709 64.6387 -63.6182 64.6387zM576 576h128v-128h-128v-128h-128v128h-128v128h128v128h128v-128z" />
    <glyph glyph-name="uniF103" unicode="&#xf103;" 
d="M448 640h128v-192h192v-128h-192v-192h-128v192h-192v128h192v192z" />
    <glyph glyph-name="uniF101" unicode="&#xf101;" 
d="M640 512h166.4c51.8398 0 89.5996 -32 89.5996 -83.2002v-29.4395c0 -51.2646 -37.7598 -79.3604 -89.5996 -79.3604h-166.4v-166.4c0 -51.8398 -28.1602 -89.5996 -79.3604 -89.5996h-29.4395c-51.2002 0 -83.2002 37.6963 -83.2002 89.5996v166.4h-162.56
c-51.2002 0 -93.4404 28.0957 -93.4404 79.3604v29.4395c0 51.2002 42.2402 83.2002 93.4404 83.2002h162.56v162.56c0 51.2002 32 93.4404 83.2002 93.4404h29.4395c51.2002 0 79.3604 -42.2402 79.3604 -93.4404v-162.56z" />
    <glyph glyph-name="uniF1BB" unicode="&#xf1bb;" 
d="M320 896h128v-64.3203c0 -35.7705 -28.6465 -64.3193 -63.9844 -64.3193c-35.583 0 -63.9834 -28.5 -63.9834 -63.6553v-319.705c0 64 -96.04 128 -128.032 128v256.356c0 70.9111 57.3076 127.644 128 127.644zM319.802 63.8301
c0 -35.374 28.6982 -63.9932 64.0996 -63.9932c35.6475 0 64.0986 -28.6172 64.0986 -63.918v-63.9189h-64.7314c-106.374 0 -191.792 86.1172 -191.792 192.348v190.978c0 35.4365 -28.4922 64.1055 -63.6377 64.1055h-127.473s-0.641602 125.132 0 127.049
c47.4561 2.55664 127.075 1.11621 127.075 1.11621c106.931 -0.461914 192.36 -87.0811 192.36 -193.125v-190.641zM704.157 513.529v190.641c0 35.374 -28.7031 63.9932 -64.1104 63.9932c-35.6543 0 -64.1113 28.6172 -64.1113 63.918v63.9189h64.7441
c105.679 0 191.826 -86.1172 191.826 -192.348v-190.978c0 -36.1172 28.9736 -64.1055 64.7129 -64.1055h126.433s0.640625 -125.132 0 -127.049c-47.4658 -2.55664 -127.099 -1.11621 -127.099 -1.11621c-106.171 0.457031 -192.396 87.0811 -192.396 193.125z
M703.936 -128h-128v64.3203c0 35.7705 28.6475 64.3193 63.9844 64.3193c35.584 0 63.9844 28.5 63.9844 63.6553v319.705c0 -64 96.04 -128 128.031 -128v-256.356c0 -70.9111 -57.3066 -127.644 -128 -127.644z" />
    <glyph glyph-name="uniF1BD" unicode="&#xf1bd;" 
d="M448 320v128h128v-128h-128zM192 576.024c0 71.1797 57.2969 127.976 127.976 127.976h384.049c71.1797 0 127.976 -57.2969 127.976 -127.976v-384.049c0 -71.1797 -57.2969 -127.976 -127.976 -127.976h-384.049c-71.1797 0 -127.976 57.2969 -127.976 127.976v384.049
zM704.024 640h-384.049c-35.5449 0 -63.9756 -28.3535 -63.9756 -63.9756v-384.049c0 -35.5449 28.3535 -63.9756 63.9756 -63.9756h384.049c35.5449 0 63.9756 28.3535 63.9756 63.9756v384.049c0 35.5449 -28.3535 63.9756 -63.9756 63.9756zM320 512.59
c0 34.5479 28.3896 63.4102 63.4102 63.4102h257.18c34.5479 0 63.4102 -28.3896 63.4102 -63.4102v-257.18c0 -34.5479 -28.3896 -63.4102 -63.4102 -63.4102h-257.18c-34.5479 0 -63.4102 28.3896 -63.4102 63.4102v257.18zM640.59 512h-257.18
c0.561523 0 0.589844 0.0283203 0.589844 0.589844v-257.18c0 0.561523 -0.0283203 0.589844 -0.589844 0.589844h257.18c-0.561523 0 -0.589844 -0.0283203 -0.589844 -0.589844v257.18c0 -0.561523 0.0283203 -0.589844 0.589844 -0.589844zM64 639.785
c0 106.303 86.0576 192.215 192.215 192.215h511.57c106.303 0 192.215 -86.0576 192.215 -192.215v-511.57c0 -106.303 -86.0576 -192.215 -192.215 -192.215h-511.57c-106.303 0 -192.215 86.0576 -192.215 192.215v511.57zM767.785 768h-511.57
c-70.8691 0 -128.215 -57.3164 -128.215 -128.215v-511.57c0 -70.8691 57.3164 -128.215 128.215 -128.215h511.57c70.8691 0 128.215 57.3164 128.215 128.215v511.57c0 70.8691 -57.3164 128.215 -128.215 128.215z" />
    <glyph glyph-name="uniF1BC" unicode="&#xf1bc;" 
d="M0 703.394c0 107.062 86.2324 192.606 192.606 192.606h638.787c107.062 0 192.606 -86.2324 192.606 -192.606v-638.787c0 -107.062 -86.2324 -192.606 -192.606 -192.606h-638.787c-107.062 0 -192.606 86.2324 -192.606 192.606v638.787zM831.394 832h-638.787
c-71.3008 0 -128.606 -57.1641 -128.606 -128.606v-638.787c0 -71.3008 57.1641 -128.606 128.606 -128.606h638.787c71.3008 0 128.606 57.1641 128.606 128.606v638.787c0 71.3008 -57.1641 128.606 -128.606 128.606zM320 192v64h64v-64h-64zM576 192v64h256v-64h-256z
M640 512v128h64v-128h-64zM512 224c0 -88.3652 -71.6348 -160 -160 -160s-160 71.6348 -160 160s71.6348 160 160 160s160 -71.6348 160 -160zM256 224c0 -53.0195 42.9805 -96 96 -96s96 42.9805 96 96s-42.9805 96 -96 96s-96 -42.9805 -96 -96zM192 448v256h640v-256
h-640zM256 640v-128h512v128h-512z" />
    <glyph glyph-name="uniF1C0" unicode="&#xf1c0;" 
d="M0 703.394c0 107.062 86.2324 192.606 192.606 192.606h638.787c107.062 0 192.606 -86.2324 192.606 -192.606v-638.787c0 -107.062 -86.2324 -192.606 -192.606 -192.606h-638.787c-107.062 0 -192.606 86.2324 -192.606 192.606v638.787zM831.394 832h-638.787
c-71.3008 0 -128.606 -57.1641 -128.606 -128.606v-638.787c0 -71.3008 57.1641 -128.606 128.606 -128.606h638.787c71.3008 0 128.606 57.1641 128.606 128.606v638.787c0 71.3008 -57.1641 128.606 -128.606 128.606zM384 256v192h448v-192h-448zM448 384v-64h320v64
h-320zM384 512v192h448v-192h-448zM448 640v-64h320v64h-320zM192 640v64h128v-64h-128zM192 384v64h128v-64h-128zM384 64v128h256v-128h-256z" />
    <glyph glyph-name="uniF1CC" unicode="&#xf1cc;" 
d="M0 703.394c0 107.062 86.2324 192.606 192.606 192.606h638.787c107.062 0 192.606 -86.2324 192.606 -192.606v-638.787c0 -107.062 -86.2324 -192.606 -192.606 -192.606h-638.787c-107.062 0 -192.606 86.2324 -192.606 192.606v638.787zM831.394 832h-638.787
c-71.3008 0 -128.606 -57.1641 -128.606 -128.606v-638.787c0 -71.3008 57.1641 -128.606 128.606 -128.606h638.787c71.3008 0 128.606 57.1641 128.606 128.606v638.787c0 71.3008 -57.1641 128.606 -128.606 128.606zM256 128v64h64v-64h-64zM256 320v64h64v-64h-64z
M256 512v64h64v-64h-64zM384 128v64h384v-64h-384zM384 320v64h384v-64h-384zM384 512v64h384v-64h-384z" />
    <glyph glyph-name="uniF1BE" unicode="&#xf1be;" 
d="M256 640h164.571l-36.5713 -64h-64l-128 -448h192v-64c0 -16 6.66699 -30.667 20 -44s28 -20 44 -20h128c16 0 30.667 6.66699 44 20s20 28 20 44v64h192l-118.154 413.538l32.8213 98.4619h21.333l192 -512v-192c0 -17.333 -6.33301 -32.333 -19 -45
s-27.667 -19 -45 -19h-768c-17.333 0 -32.333 6.33301 -45 19s-19 27.667 -19 45v192zM608 384h96l-192 -224l-192 224s13.4404 -1.91992 96 0c0 127.36 96 384 448 480c-289.92 -226.56 -256 -416 -256 -480z" />
    <glyph glyph-name="uniF1BF" unicode="&#xf1bf;" 
d="M190.242 128v-64h-123.841c-66.4014 0 -67.7217 96 -66.4014 128s33.0801 172.408 96 226.044c-22 23.8037 -29.5986 60.0322 -29.5986 93.9561c0 70.7959 54.3203 128 123.841 128c69.5195 0 129.758 -57.2041 129.758 -128c0 -36.5195 -6.48047 -69.7559 -32 -93.9561
c2.2002 -1.75977 30.2402 -64.8438 32 -67.0439c-7.91992 -11.3965 -25.4004 -19.1201 -32 -31c-8.7998 9.63574 -21.8799 54.0439 -32 60.5996l-32 37.4443l12.7998 29.9561c26.4004 15.4004 19.2002 32.3203 19.2002 64c0 64 -35.3877 64 -65.7578 64
s-62.2422 0 -62.2422 -64c0 -29.4805 -5.12793 -47.7197 19.0713 -64l12.8008 -29.9561l-31.8721 -37.4443c-51.2002 -60.5996 -67.9561 -163.315 -74.3984 -188.6c-6.44141 -25.2842 12.7998 -64 42.3984 -64h94.2422zM833.758 126h94.2422
c29.5977 0 48.8398 38.7158 42.3984 64c-6.44238 25.2842 -23.1982 128 -74.3984 188.6l-31.8721 37.4443l12.8008 29.9561c24.1992 16.2803 19.0713 34.5195 19.0713 64c0 64 -31.8721 64 -62.2422 64s-65.7578 0 -65.7578 -64c0 -31.6797 -7.2002 -48.5996 19.2002 -64
l12.7998 -29.9561l-32 -37.4443c-10.1201 -6.55566 -23.2002 -50.9639 -32 -60.5996c-6.59961 11.8799 -24.0801 19.6035 -32 31c1.75977 2.2002 29.7998 65.2842 32 67.0439c-25.5195 24.2002 -32 57.4365 -32 93.9561c0 70.7959 60.2383 128 129.758 128
c69.5205 0 123.84 -57.2041 123.84 -128c0 -33.9238 -7.59766 -70.1523 -29.5977 -93.9561c62.9199 -53.6357 94.6797 -194.044 96 -226.044s0 -128 -66.4023 -128h-123.84v64zM613.587 366.56c145.92 -154.396 154.413 -323.892 154.413 -326.56
c0 -104.343 -77.043 -103.994 -154.413 -104h-203.987c-78.1436 0 -153.6 1.5625 -153.6 104c0 2.7373 0.686523 180.031 153.519 331.76c46.1611 42.6406 76.2842 42.6406 102.481 42.6406s61.4404 -5.2002 101.587 -47.8408zM512 768
c84.6465 0 153.6 -72.2812 153.6 -157.387s-67.584 -154.613 -153.6 -154.613c-85.9521 0 -153.6 69.5078 -153.6 154.613s68.9531 157.387 153.6 157.387z" />
    <glyph glyph-name="uniF104" unicode="&#xf104;" 
d="M512 -128c-69.334 0 -135.583 13.583 -198.75 40.75s-117.583 63.583 -163.25 109.25s-82.083 100.083 -109.25 163.25s-40.75 129.416 -40.75 198.75s13.583 135.583 40.75 198.75s63.583 117.583 109.25 163.25s100.083 82.083 163.25 109.25
s129.416 40.75 198.75 40.75s135.583 -13.583 198.75 -40.75s117.583 -63.583 163.25 -109.25s82.083 -100.083 109.25 -163.25s40.75 -129.416 40.75 -198.75s-13.583 -135.583 -40.75 -198.75s-63.583 -117.583 -109.25 -163.25s-100.083 -82.083 -163.25 -109.25
s-129.416 -40.75 -198.75 -40.75zM512 797c-56 0 -109.5 -10.917 -160.5 -32.75s-94.916 -51.166 -131.75 -88s-66.167 -80.75 -88 -131.75s-32.75 -104.5 -32.75 -160.5s10.917 -109.5 32.75 -160.5s51.166 -94.916 88 -131.75s80.75 -66.167 131.75 -88
s104.5 -32.75 160.5 -32.75s109.5 10.917 160.5 32.75s94.916 51.166 131.75 88s66.167 80.75 88 131.75s32.75 104.5 32.75 160.5s-10.917 109.5 -32.75 160.5s-51.166 94.916 -88 131.75s-80.75 66.167 -131.75 88s-104.5 32.75 -160.5 32.75zM711 568l52 -51
c3.33301 -4.66699 5 -9.83301 5 -15.5s-1.66699 -10.167 -5 -13.5l-277 -279c-12 -9.33301 -23.667 -14 -35 -14h-24c-6 0 -12.417 1.41699 -19.25 4.25s-12.083 6.08301 -15.75 9.75l-131 132c-3.33301 4 -5 8.83301 -5 14.5s1.66699 10.5 5 14.5l52 51
c3.33301 4.66699 8 7 14 7s11 -2.33301 15 -7l83 -83c4 -4 8.83301 -6 14.5 -6s10.5 2 14.5 6l228 230c4.66699 3.33301 9.83301 5 15.5 5s10.167 -1.66699 13.5 -5z" />
    <glyph glyph-name="uniF105" unicode="&#xf105;" 
d="M64 768h896c17.333 0 32.333 -6.33301 45 -19s19 -27.667 19 -45s-6.33301 -32.333 -19 -45s-27.667 -19 -45 -19h-896c-17.333 0 -32.333 6.33301 -45 19s-19 27.667 -19 45s6.33301 32.333 19 45s27.667 19 45 19zM64 448h896c17.333 0 32.333 -6.33301 45 -19
s19 -27.667 19 -45s-6.33301 -32.333 -19 -45s-27.667 -19 -45 -19h-896c-17.333 0 -32.333 6.33301 -45 19s-19 27.667 -19 45s6.33301 32.333 19 45s27.667 19 45 19zM64 128h896c17.333 0 32.333 -6.33301 45 -19s19 -27.667 19 -45s-6.33301 -32.333 -19 -45
s-27.667 -19 -45 -19h-896c-17.333 0 -32.333 6.33301 -45 19s-19 27.667 -19 45s6.33301 32.333 19 45s27.667 19 45 19z" />
    <glyph glyph-name="uniF1D3" unicode="&#xf1d3;" 
d="M256 544l256.592 -256l255.408 256l64 -96l-319.408 -322.375l-320.592 322.375z" />
    <glyph glyph-name="uniF1D4" unicode="&#xf1d4;" 
d="M256 160l-64 96l320.592 322.375l319.408 -322.375l-64 -96l-255.408 256z" />
    <glyph glyph-name="uniF106" unicode="&#xf106;" 
d="M256 583l57 55l195 -182l200 184l52 -57l-238 -236h-23l-243 236v0zM264 364l57 55l194 -182l201 184l52 -57l-238 -236h-24l-242 236v0z" />
    <glyph glyph-name="uniF107" unicode="&#xf107;" 
d="M538 576l-192 -192l192 -192l-64 -64l-224 236.8v38.4004l224 236.8l64 -64v0zM794 576l-192 -192l192 -192l-64 -64l-224 236.8v38.4004l224 236.8l64 -64v0z" />
    <glyph glyph-name="uniF108" unicode="&#xf108;" 
d="M480 576v0l64 64l224 -236.8v-38.4004l-224 -236.8l-64 64l192 192zM224 576v0l64 64l224 -236.8v-38.4004l-224 -236.8l-64 64l192 192z" />
    <glyph glyph-name="uniF109" unicode="&#xf109;" 
d="M256 185v0l243 236h23l238 -236l-52 -57l-200 184l-195 -182zM264 404v0l242 236h24l238 -236l-52 -57l-201 184l-194 -182z" />
    <glyph glyph-name="uniF10B" unicode="&#xf10b;" 
d="M703.936 204.224h0.0644531v307.841h64v-305.28v-1.34375c0 -113.345 -116.48 -204.16 -222.72 -205.44c-153.601 -1.85645 -224 89.6641 -225.28 201.024v1.2793v1.85645v1.9834v421.761c0.639648 77.9521 87.04 139.456 161.28 140.096
c73.5996 0 158.08 -54.4004 158.72 -131.904l-2.55957 -381.376c-0.640625 -47.3594 -51.8408 -64 -96 -64c-44.8008 -0.639648 -95.3604 21.1201 -95.3604 64.6406l1.91992 320.64h64l-1.91992 -310.976v16c1.28027 -18.624 14.0156 -28.1602 31.3604 -28.1602
c19.1992 0 32.6396 -8.32031 32.6396 20.416c0 48.6396 3.2002 368 3.2002 368c-0.640625 48.6396 -49.2803 64.6396 -96 64.6396c-47.4238 0 -97.2803 -42.8799 -97.2803 -82.4961l-1.28027 -418.56c0 -71.6807 44.7363 -144 162.496 -142.656
c78.7197 0.639648 158.08 58.8799 158.72 142.016z" />
    <glyph glyph-name="uniF10A" unicode="&#xf10a;" 
d="M704 192v0v512h64v-512c0 -160 -128 -256 -256 -256s-256 96 -256 256v416c2.55957 125.44 97.8564 224 192 224c94.7197 0 192 -98.5596 192 -224v-350.08c0 -71.04 -57.5996 -128.64 -128 -128.64c-70.4004 -0.640625 -128 56.3193 -128 126.72v256h64v-256
c0 -35.2002 28.7998 -64 64 -64s64 28.7998 64 64v352c0.639648 60.7998 -36.4805 160 -128 160c-94.1436 0 -126.72 -99.2002 -128 -160c-1.28027 -46.7197 0 -342.4 0 -416c0 -93.4404 64 -192 192 -192s192 96 192 192z" />
    <glyph glyph-name="uniF10C" unicode="&#xf10c;" 
d="M263.062 84.375l185.938 663.25h63l-185.5 -663.25h-63.4375zM512 84.375l185.938 663.25h63l-185.5 -663.25h-63.4375z" />
    <glyph glyph-name="uniF10D" unicode="&#xf10d;" 
d="M320 672v-160h576v-320h-128v128h-448v-160l-256 256z" />
    <glyph glyph-name="uniF1D6" unicode="&#xf1d6;" 
d="M102.4 384v153.6c312.319 0 563.148 -246.271 563.199 -559.615h-153.6c0 208.896 -201.216 406.016 -409.6 406.016zM972.8 -22.0156h-153.6c0 382.976 -335.36 713.216 -716.8 713.216v153.6c485.888 0 870.399 -379.392 870.399 -866.815zM92.1602 76.7998
c-1.52588e-05 85.3333 38.4001 128 115.2 128c76.7995 1.52588e-05 115.199 -42.6667 115.199 -128c0 -85.3333 -38.3997 -128 -115.199 -128c-76.8001 -3.8147e-06 -115.2 42.6667 -115.2 128z" />
    <glyph glyph-name="uniF10E" unicode="&#xf10e;" 
d="M64 512v0c318.08 0 576 -257.92 576 -576h-128c0 211.84 -236.16 448 -448 448v128zM960 -64v0h-128c0 389.12 -378.88 768 -768 768v128c494.72 0 896 -401.28 896 -896zM76.7998 67.2002c0 74.6667 37.3333 112 112 112c74.6667 -1.52588e-05 112 -37.3333 112 -112
c0 -74.6667 -37.3333 -112 -112 -112c-74.6667 3.8147e-06 -112 37.3333 -112 112z" />
    <glyph glyph-name="uniF10F" unicode="&#xf10f;" 
d="M704 768v-128h128zM896 576h-256v256h-320c-70.5918 0 -128 -57.4082 -128 -128v-640c0 -70.5918 57.4082 -128 128 -128h448c70.5918 0 128 57.4082 128 128v512zM320 896h352l288 -288v-544c0 -106.24 -85.7598 -192 -192 -192h-448c-106.24 0 -192 85.7598 -192 192
v640c0 106.24 85.7598 192 192 192zM704 265.92c-63.3604 -2.55957 -128 -53.7598 -128 -128v-105.92h-64v105.92c-0.639648 69.1201 -67.9043 128 -128 128.064l-6.40039 -128l-140.8 192l217.536 128l-57.5361 -129.28c52.4805 -10.8799 123.521 -44.9277 150.4 -89.0244
c25.5996 42.8799 98.5596 80 149.12 91.5205l-62.6562 126.72l217.536 -128l-140.8 -192z" />
    <glyph glyph-name="uniF110" unicode="&#xf110;" 
d="M704 768v-128h128zM896 576h-256v256h-320c-70.5918 0 -128 -57.4082 -128 -128v-640c0 -70.5918 57.4082 -128 128 -128h448c70.5918 0 128 57.4082 128 128v512zM320 896h352l288 -288v-544c0 -106.24 -85.7598 -192 -192 -192h-448c-106.24 0 -192 85.7598 -192 192
v640c0 106.24 85.7598 192 192 192zM320 448v64h256v-64h-256zM320 256v64h448v-64h-448zM320 64v64h448v-64h-448zM192 448v64h64v-64h-64zM192 640v64h64v-64h-64zM192 256v64h64v-64h-64zM192 64v64h64v-64h-64zM832 448v64h64v-64h-64zM832 256v64h64v-64h-64zM832 64
v64h64v-64h-64zM704 -64v64h64v-64h-64zM704 448v64h64v-64h-64zM512 -64v64h64v-64h-64zM320 -64v64h64v-64h-64zM512 768v64h64v-64h-64zM512 640v64h64v-64h-64zM320 768v64h64v-64h-64zM320 640v64h64v-64h-64z" />
    <glyph glyph-name="uniF111" unicode="&#xf111;" 
d="M128 576v0v128c0 106.24 85.7598 192 192 192h352l288 -288v-192v-352c0 -96 -65.7109 -192 -143.855 -192h-518.399c-62.0801 -0.639648 -128.641 78.7197 -152.32 117.12c-4.41602 6.39941 -86.4004 162.56 -138.88 273.28c-30.0801 64 49.3438 121.6 119.68 121.6z
M704 773.504v0v-133.504h133.504zM896 578.752v0v0v-2.75195h-256v256h2.75195h-322.752c-70.5918 0 -128 -57.4082 -128 -128v-64h192c17.0244 0 33.2158 -6.71973 45.248 -18.752l109.248 -109.248h357.504v66.752zM768 263.04v0v0
c-21.1201 28.7363 -61.8711 56.96 -97.1348 56.96h-515.841c-35.1357 0 -108.305 -26.2402 -91.0244 -56.96c53.1201 -92.7363 126.144 -227.776 128 -230.976c27.4561 -42.3047 69.9053 -98.624 142.225 -96h445.44c42.8799 0 111.215 6.46387 116.335 96z" />
    <glyph glyph-name="uniF113" unicode="&#xf113;" 
d="M704 768v-128h128zM896 576h-256v256h-320c-70.5918 0 -128 -57.4082 -128 -128v-640c0 -70.5918 57.4082 -128 128 -128h448c70.5918 0 128 57.4082 128 128v512zM320 896h352l288 -288v-544c0 -106.24 -85.7598 -192 -192 -192h-448c-106.24 0 -192 85.7598 -192 192
v640c0 106.24 85.7598 192 192 192zM640 320h128v-64h-128v64zM768 384h64v-64h-64v64zM640 448h128v-64h-128v64zM768 256h64v-64h-64v64zM640 192h128v-64h-128v64zM384 640v64h128v-256h-64v192h-64zM320 384h192v-64h-192v64zM512 320h64v-64h-64v64zM384 256h128v-64
h-128v64zM320 192h64v-64h192v-64h-256v128z" />
    <glyph glyph-name="uniF114" unicode="&#xf114;" 
d="M640 581.161v250.839h-320c-70.5918 0 -128 -57.4082 -128 -128v-640c0 -70.5918 57.4082 -128 128 -128h448c70.5918 0 128 57.4082 128 128v512h-189.798c2.66504 -5.65039 4.15234 -12.0439 4.13379 -18.8164c0 -23.6797 -17.2158 -42.2393 -38.9756 -42.2393
c-21.1201 0 -38.4004 18.5596 -38.4004 42.2393c0 8.92871 2.60938 17.2002 7.04004 23.9775v0v0zM704 768v0v0v-128h128zM320 896v0h352l288 -288v-544c0 -106.24 -85.7598 -192 -192 -192h-448c-106.24 0 -192 85.7598 -192 192v640c0 106.24 85.7598 192 192 192z
M416.64 598.784v0c21.1201 0 38.3359 -18.624 38.4004 -41.6006c0 -23.6797 -17.2803 -42.2393 -38.4004 -42.2393c-21.6953 0 -38.9756 18.5596 -38.9756 42.2393c0 22.9766 17.2158 41.6006 38.9756 41.6006zM544 637.12v0c21.7598 0 38.9756 -18.5605 38.9756 -42.2402
c0 -22.9756 -17.2793 -41.5996 -38.9756 -41.5996s-38.9756 18.624 -38.9756 41.5996c0 23.6797 17.2158 42.2402 38.9756 42.2402zM763.52 481.664v0c3.2002 -2.62402 5.12012 -7.10449 4.67285 -11.5205c-3.9043 -43.584 -19.9043 -86.4639 -48.6406 -131.264
c-27.5195 -41.6641 -62.7842 -80.6396 -96.6396 -118.399l-7.74414 -8.38477c-2.49609 -2.49609 -3.83984 -8.25586 -0.639648 -12.7354c8.38379 -10.2402 16 -21.7607 23.04 -32.6406c33.9199 -53.7598 51.8398 -105.023 53.7598 -155.52
c0.704102 -3.83984 -0.640625 -7.74414 -3.2002 -10.2402c-1.91992 -2.62402 -5.12012 -3.9043 -9.02441 -3.9043h-73.5352c-6.40039 0 -11.5205 5.12012 -12.1602 12.0967c-5.12012 76.2236 -64.6406 141.504 -128 211.264
c-33.9199 37.7598 -69.1201 76.7998 -96.6406 118.4c-28.7354 44.7998 -44.7354 87.6797 -48.6396 131.264c-0.639648 4.47949 1.21582 8.89551 4.48047 11.5195c2.49512 1.85645 5.11914 3.2002 7.61523 3.2002l4.48047 -1.34375
c26.2402 -10.8799 53.1201 -19.1357 77.5039 -25.5361c4.41602 -1.28027 8.83203 -5.12012 10.1758 -9.59961c17.9199 -52.416 63.3604 -102.4 110.656 -154.88c2.04785 -1.9209 4.47949 -4.41602 9.02441 -4.41602c4.54395 0 7.03906 2.49512 9.02344 4.41602
c47.2959 52.4795 92.7363 102.464 110.656 154.88c1.28027 4.47949 5.75977 8.89551 10.1758 10.2393c24.3838 5.76074 51.2637 14.0801 77.5039 24.96l4.48047 0.640625c2.49609 0 5.12012 -0.640625 7.61523 -2.49609zM464.64 161.024v0
c22.3359 -25.0244 37.1201 -42.8809 49.1523 -60.2881c2.68848 -3.2002 5.82422 -11.584 1.34375 -19.8398c-12.1602 -25.0244 -18.5596 -48 -20.416 -71.7441c-0.576172 -6.97656 -5.69531 -12.0967 -12.1602 -12.0967h-73.5352
c-3.9043 0 -7.16797 1.28027 -9.02441 3.9043c-2.55957 2.49609 -3.9043 6.33594 -3.2002 10.2402c1.98438 48 17.9844 96.6396 49.3438 147.775c1.2168 2.04883 4.41602 6.46484 9.53613 6.46484c4.48047 0 7.10449 -2.56055 8.95996 -4.41602zM544 442.56
c22.9756 0 36.4805 1.34473 41.5996 1.34473c5.76074 0 10.8809 -5.12012 10.8809 -12.1602c0 -1.91992 -0.640625 -3.2002 -0.640625 -4.41602c-3.26367 -9.02441 -17.3438 -41.0244 -43.584 -68.4805c-2.55957 -3.26367 -5.75977 -3.90332 -8.32031 -3.90332
c-2.55957 0 -5.75977 0.639648 -8.31934 3.90332c-26.2402 27.5205 -40.3203 59.5205 -43.584 68.4805c-0.640625 1.28027 -0.640625 2.49609 -0.640625 4.41602c0 7.04004 5.12012 12.1602 10.8809 12.1602c5.24707 0 18.752 -1.34473 41.7275 -1.34473v0z" />
    <glyph glyph-name="uniF115" unicode="&#xf115;" 
d="M704 768v-128h128zM896 576h-256v256h-320c-70.5918 0 -128 -57.4082 -128 -128v-640c0 -70.5918 57.4082 -128 128 -128h448c70.5918 0 128 57.4082 128 128v512zM320 896h352l288 -288v-544c0 -106.24 -85.7598 -192 -192 -192h-448c-106.24 0 -192 85.7598 -192 192
v640c0 106.24 85.7598 192 192 192zM385.216 -49.9209c0.640625 1.21582 10.8799 131.072 99.9043 196.416c16.6396 -7.04004 42.8799 -12.1602 58.8799 -12.1602c13.4404 0 39.04 3.26465 57.0244 12.8643c88.2559 -64 102.976 -196.48 102.976 -197.76
c0 -4.25293 -0.595703 -8.79199 -1.61426 -13.4395h-318.056c-0.641602 4.95508 -0.463867 9.73145 0.885742 14.0791zM455.68 288c0 53.1201 39.6807 96 88.3203 96s87.6797 -42.8799 87.6797 -96s-39.04 -96 -87.6797 -96s-88.3203 42.8799 -88.3203 96v0zM229.12 210.495
c16.6396 -7.04004 42.8799 -12.1602 58.8799 -12.1602c13.4404 0 39.04 3.26465 57.0244 12.8643c27.8516 -20.1973 48.3809 -47.2158 63.4336 -74.7773l-75.1357 -158.56l12.1465 -42.5674h-153.469v239.479c10.5283 13.0391 22.8057 25.2139 37.1201 35.7207zM199.68 352
c0 53.1201 39.6807 96 88.3203 96s87.6797 -42.8799 87.6797 -96s-39.04 -96 -87.6797 -96s-88.3203 42.8799 -88.3203 96v0zM857.024 211.199c15.0264 -10.8975 27.9219 -23.7793 38.9756 -37.6611v-238.243h-165.056
c-0.416992 1.50684 -0.841797 3.02051 -1.27539 4.54004l49.9844 26.4092l-95.2324 180.247c13.9668 23.5225 32.3975 46.167 56.6992 64.0039c16.6396 -7.04004 42.8799 -12.1602 58.8799 -12.1602c13.4404 0 39.04 3.26465 57.0244 12.8643zM711.68 352
c0 53.1201 39.6807 96 88.3203 96s87.6797 -42.8799 87.6797 -96s-39.04 -96 -87.6797 -96s-88.3203 42.8799 -88.3203 96v0z" />
    <glyph glyph-name="uniF112" unicode="&#xf112;" 
d="M704 768v-128h128zM896 576h-256v256h-320c-70.5918 0 -128 -57.4082 -128 -128v-640c0 -70.5918 57.4082 -128 128 -128h448c70.5918 0 128 57.4082 128 128v512zM320 896h352l288 -288v-544c0 -106.24 -85.7598 -192 -192 -192h-448c-106.24 0 -192 85.7598 -192 192
v640c0 106.24 85.7598 192 192 192zM352 128.704c-17.2803 5.12012 -32 30.0801 -32 49.9199v225.92c0 16 3.83984 36.4805 22.9756 42.2402l180.48 60.7354c9.59961 2.62402 7.67969 4.48047 21.1201 4.48047c12.7998 0 10.8799 -1.85645 20.4795 -4.48047
l178.561 -60.0957c16 -5.12012 24.3193 -28.2236 24.3838 -42.8799v-225.92c0 -21.1201 -14.1436 -43.584 -32.6396 -53.1201c0 0 -90.4785 -24.6797 -159.36 -49.4658v-12.0381h-64v11.5693c-58.7266 20.1162 -160 53.1348 -160 53.1348zM384 352v-192.576l128 -29.2471
v196.213zM736 419.2l-192.704 41.5996l-191.296 -41.5996l160 -40.1475v4.94727h64v-4.6543zM704 352l-128 -25.5898v-192l128 25.5898v192z" />
    <glyph glyph-name="uniF116" unicode="&#xf116;" 
d="M704 768v-128h128zM896 576h-256v256h-320c-70.5918 0 -128 -57.4082 -128 -128v-640c0 -70.5918 57.4082 -128 128 -128h448c70.5918 0 128 57.4082 128 128v512zM320 896h352l288 -288v-544c0 -106.24 -85.7598 -192 -192 -192h-448c-106.24 0 -192 85.7598 -192 192
v640c0 106.24 85.7598 192 192 192zM704 384l192 -160l-192 -160v128h-192v64h192v128zM384 569.6v-121.6h192v-64h-192v-134.4l-192 160z" />
    <glyph glyph-name="uniF117" unicode="&#xf117;" 
d="M704 768v-128h128zM896 576h-256v256h-320c-70.5918 0 -128 -57.4082 -128 -128v-640c0 -70.5918 57.4082 -128 128 -128h448c70.5918 0 128 57.4082 128 128v512zM320 896h352l288 -288v-544c0 -106.24 -85.7598 -192 -192 -192h-448c-106.24 0 -192 85.7598 -192 192
v640c0 106.24 85.7598 192 192 192zM649.12 304.544l-32 -32l-18.5605 12.1602c-25.0234 24.8955 -65.9199 24.8955 -90.8799 0l-120.384 -101.12c-24.8955 -25.0244 -24.8955 -78.7197 0 -103.744l5.12012 -5.12012c25.0244 -24.8955 78.7197 -24.8955 103.744 0
l44.0957 57.0244l32 -32l-57.5996 -70.4004c-37.7598 -37.7598 -102.977 -37.7598 -140.736 0l-32 32c-37.7598 37.7598 -37.7598 102.977 0 140.736l147.2 128c37.7598 37.7598 90.1758 37.7598 128 0l32 -25.5361v0zM544 240.432l18.624 -12.0957
c25.5361 -25.0234 65.8564 -25.0234 90.8799 0l120.256 101.12c25.6006 24.8955 25.6006 78.6562 0 103.616l-5.12012 5.12012c-24.8955 25.0234 -78.0156 25.0234 -103.615 0l-44.1602 -56.96l-32 32l57.5996 70.3994c37.7598 37.8242 103.68 37.8242 140.8 0l25.5361 -32
c37.8242 -37.7598 37.8242 -103.04 0 -140.8l-140.8 -128c-37.1201 -37.7598 -90.2402 -37.7598 -128 0l-32 25.5996z" />
    <glyph glyph-name="uniF118" unicode="&#xf118;" 
d="M896 64v512h-256v256h-320c-70.5918 0 -128 -57.4082 -128 -128v-640c0 -70.5918 57.4082 -128 128 -128h383.208l-115.752 101.76c-23.6162 23.6807 -56.2559 35.8398 -89.5996 33.2803c-63.2969 -5.12012 -144 5.18359 -176 65.2803
c-41.5361 77.4395 -60.7363 158.72 -65.8564 254.72l160 -160c55.6797 -3.2002 131.2 72.3203 128 128l-160 160c86.9756 -3.83984 175.36 -23.6797 254.72 -65.8564c60.1602 -32 70.4004 -112.703 65.2803 -176c-2.55957 -33.2793 9.66406 -65.9834 33.2803 -89.5996
l154.857 -154.857c2.52246 10.0117 3.8623 20.4883 3.8623 31.2734zM832 640l-128 128v-128h128zM128 704c0 106.24 85.7598 192 192 192h352l288 -288v-544c0 -106.24 -85.7598 -192 -192 -192h-448c-106.24 0 -192 85.7598 -192 192v640z" />
    <glyph glyph-name="uniF119" unicode="&#xf119;" 
d="M320 153l-100 -62c-4.66699 4.66699 -8 8.33301 -10 11c-41 44 -71 95.083 -90 153.25s-24.333 118.083 -16 179.75c6.33301 48.667 20.583 94.333 42.75 137s50.583 80 85.25 112c40.334 36.667 86.166 64.583 137.5 83.75s104.833 27.583 160.5 25.25l14 103l171 -183
l-213 -142l14 108c-39 1 -76.25 -5.41699 -111.75 -19.25s-67.25 -33.75 -95.25 -59.75c-52 -49 -83 -109 -93 -180c-6 -44.667 -2.08301 -88 11.75 -130s35.583 -79 65.25 -111c12 -12 21 -20.667 27 -26zM521 196l-15 -113c39 -0.333008 76.5 6.41699 112.5 20.25
s68.166 33.75 96.5 59.75c52.334 49.334 83 109.333 92 180c6 44.667 2.16699 88 -11.5 130s-35.166 79 -64.5 111c-13.333 13.333 -23.667 23 -31 29l100 63l14 -15c41 -44 71 -95.083 90 -153.25s24.333 -118.083 16 -179.75
c-6.33301 -48.667 -20.583 -94.333 -42.75 -137s-50.583 -80 -85.25 -112c-40 -37 -86.166 -65.167 -138.5 -84.5s-106.5 -27.5 -162.5 -24.5l-13 -98l-172 185z" />
    <glyph glyph-name="uniF11A" unicode="&#xf11a;" 
d="M256.177 768h63.8232v64h64v-64h320v64h64v-64h63.8232c70.9902 0 128.177 -57.5518 128.177 -128.546v-447.637c0 -105.953 -85.9268 -191.817 -191.922 -191.817h-448.156c-106.017 0 -191.922 85.8799 -191.922 191.817v447.637
c0 70.8213 57.3867 128.546 128.177 128.546zM768.078 64c70.6631 0 127.922 57.2246 127.922 127.817l-0.00195312 448.183c0 0 -703.998 -0.363281 -703.998 -0.545898v-447.637c0 -70.5918 57.252 -127.817 127.922 -127.817h448.156zM704 448v64h64v-64h-64zM704 320v64
h64v-64h-64zM576 320v64h64v-64h-64zM448 320v64h64v-64h-64zM320 320v64h64v-64h-64zM576 192v64h64v-64h-64zM448 192v64h64v-64h-64zM320 192v64h64v-64h-64zM576 448v64h64v-64h-64zM448 448v64h64v-64h-64z" />
    <glyph glyph-name="uniF11B" unicode="&#xf11b;" 
d="M616 385l193 -193c14.667 -14.667 22 -32.167 22 -52.5s-7.33301 -37.833 -22 -52.5s-32.167 -22 -52.5 -22s-37.833 7.33301 -52.5 22l-193 193l-193 -193c-14.667 -14.667 -32.167 -22 -52.5 -22s-37.833 7.33301 -52.5 22s-22 32.167 -22 52.5s7.33301 37.833 22 52.5
l193 193l-191 191c-14.667 14.667 -22 32.167 -22 52.5s7.33301 37.5 22 51.5c14.667 14.667 32.167 22 52.5 22s37.833 -7.33301 52.5 -22l191 -191l194 194c14.667 14.667 32.167 22 52.5 22s37.833 -7.33301 52.5 -22c14 -14.667 21 -32.167 21 -52.5s-7 -37.5 -21 -51.5
z" />
    <glyph glyph-name="uniF11C" unicode="&#xf11c;" 
d="M640 471.6l-206.529 -215.6l-48.1309 50.4004l159.46 173.149l-160.8 178.181l49.4707 46.2695l206.529 -211.4v-21z" />
    <glyph glyph-name="uniF11D" unicode="&#xf11d;" 
d="M69.1387 768.227c0.706055 70.5674 58.3516 127.773 128.896 127.773h635.481c70.4814 0 127.618 -57.7666 127.618 -128.639v-511.277c0 -71.0449 -57.2266 -128.639 -128.393 -128.639h-127.607l-192 -255.617l-192 255.617h-130.648
c-70.5586 0 -127.181 57.7666 -126.479 127.773zM833.517 832h-635.481c-35.4033 0 -64.5439 -28.8965 -64.8994 -64.4141l-5.13281 -513.007c-0.34668 -34.6523 27.7607 -63.1338 62.4834 -63.1338h162.648l159.433 -223.445l160.567 223.445h159.607
c35.6836 0 64.3926 28.8037 64.3926 64.6387v511.277c0 35.7129 -28.6709 64.6387 -63.6182 64.6387z" />
    <glyph glyph-name="uniF1CD" unicode="&#xf1cd;" 
d="M736 320l-288 289.638l288 286.362l288 -286.362zM512 191.621c0 71.6396 57.4775 128.379 128.379 128.379h191.242c71.6396 0 128.379 -57.4775 128.379 -128.379v-191.242c0 -71.6396 -57.4775 -128.379 -128.379 -128.379h-191.242
c-71.6396 0 -128.379 57.4775 -128.379 128.379v191.242zM831.621 256h-191.242c-35.8682 0 -64.3789 -28.3975 -64.3789 -64.3789v-191.242c0 -35.8682 28.3975 -64.3789 64.3789 -64.3789h191.242c35.8682 0 64.3789 28.3975 64.3789 64.3789v191.242
c0 35.8682 -28.3975 64.3789 -64.3789 64.3789zM0 191.621c0 71.6396 57.4775 128.379 128.379 128.379h191.242c71.6396 0 128.379 -57.4775 128.379 -128.379v-191.242c0 -71.6396 -57.4775 -128.379 -128.379 -128.379h-191.242
c-71.6396 0 -128.379 57.4775 -128.379 128.379v191.242zM319.621 256h-191.242c-35.8682 0 -64.3789 -28.3975 -64.3789 -64.3789v-191.242c0 -35.8682 28.3975 -64.3789 64.3789 -64.3789h191.242c35.8682 0 64.3789 28.3975 64.3789 64.3789v191.242
c0 35.8682 -28.3975 64.3789 -64.3789 64.3789zM0 703.621c0 71.6396 57.4775 128.379 128.379 128.379h191.242c71.6396 0 128.379 -57.4775 128.379 -128.379v-191.242c0 -71.6396 -57.4775 -128.379 -128.379 -128.379h-191.242
c-71.6396 0 -128.379 57.4775 -128.379 128.379v191.242zM319.621 768h-191.242c-35.8682 0 -64.3789 -28.3975 -64.3789 -64.3789v-191.242c0 -35.8682 28.3975 -64.3789 64.3789 -64.3789h191.242c35.8682 0 64.3789 28.3975 64.3789 64.3789v191.242
c0 35.8682 -28.3975 64.3789 -64.3789 64.3789z" />
    <glyph glyph-name="uniF1B7" unicode="&#xf1b7;" 
d="M64 64v128h704v-128h-704zM64 576v128h704v-128h-704zM64 320v128h704v-128h-704zM832 64v128h128v-128h-128zM832 576v128h128v-128h-128zM832 320v128h128v-128h-128z" />
    <glyph glyph-name="uniF11E" unicode="&#xf11e;" 
d="M1024 323c0 -7.33301 -3.41699 -14.25 -10.25 -20.75s-14.083 -10.25 -21.75 -11.25l-153 -28c-7.66699 -1 -12.833 -4.25 -15.5 -9.75s-1.83301 -11.25 2.5 -17.25l87 -129c3.66699 -6 4.91699 -13.167 3.75 -21.5s-4.41699 -15.167 -9.75 -20.5l-82 -83
c-5.33301 -5.33301 -12.167 -8.33301 -20.5 -9s-15.5 1.33301 -21.5 6l-129 86c-6 4 -11.833 5 -17.5 3s-9.16699 -6.66699 -10.5 -14l-28 -154c-1 -7 -4.66699 -13.417 -11 -19.25s-13 -8.75 -20 -8.75h-118c-7.33301 0 -14.25 2.91699 -20.75 8.75
s-10.25 12.25 -11.25 19.25l-28 153c-1 7.33301 -4.41699 12.167 -10.25 14.5s-11.75 1.16699 -17.75 -3.5l-128 -86c-6.33301 -4 -13.583 -5.66699 -21.75 -5s-14.917 3.66699 -20.25 9l-83 83c-5.33301 5.33301 -8.41699 12.167 -9.25 20.5s0.583008 15.5 4.25 21.5
l88 129c4 6 4.75 11.75 2.25 17.25s-7.25 8.75 -14.25 9.75l-152 28c-7 1 -13.25 4.75 -18.75 11.25s-8.25 13.417 -8.25 20.75v118c0 7 2.75 13.667 8.25 20s11.75 10 18.75 11l151 28c7.66699 2 12.75 5.66699 15.25 11s1.75 11 -2.25 17l-88 129
c-3.66699 6 -5.08301 13 -4.25 21s3.91699 14.667 9.25 20l83 83c5.33301 5.33301 12.083 8.5 20.25 9.5s15.417 -0.5 21.75 -4.5l128 -88c6 -3.66699 11.917 -4.33301 17.75 -2s9.25 7 10.25 14l28 155c1 7.66699 4.75 14.75 11.25 21.25s13.417 9.75 20.75 9.75h118
c7 0 13.667 -3.25 20 -9.75s10 -13.583 11 -21.25l28 -153c1.33301 -7 4.83301 -11.833 10.5 -14.5s11.5 -2.16699 17.5 1.5l129 87c6 4.33301 12.917 6 20.75 5s14.583 -4.33301 20.25 -10l83 -83c5.33301 -5 8.41699 -11.583 9.25 -19.75s-0.583008 -15.25 -4.25 -21.25
l-88 -129c-4 -6 -4.75 -11.667 -2.25 -17s7.58301 -9 15.25 -11l155 -28c7.66699 -1 14.917 -4.66699 21.75 -11s10.25 -13 10.25 -20v-118zM704 384c0 33 -8.83301 64.333 -26.5 94s-41.333 53.417 -71 71.25s-61.166 26.75 -94.5 26.75c-33 0 -64.333 -8.91699 -94 -26.75
s-53.417 -41.583 -71.25 -71.25s-26.75 -61 -26.75 -94s8.91699 -64.333 26.75 -94s41.583 -53.417 71.25 -71.25s61 -26.75 94 -26.75c33.334 0 64.833 8.91699 94.5 26.75s53.333 41.583 71 71.25s26.5 61 26.5 94z" />
    <glyph glyph-name="uniF11F" unicode="&#xf11f;" 
d="M724.79 235.45v0c179 -27.8096 299.21 -89.5 299.21 -158.57c0 -58.1699 -88.9199 -109.689 -223.061 -140.358c-1.52051 -0.329102 -3.09082 -0.519531 -4.70898 -0.519531c-11.7812 0 -21.3115 9.26953 -21.3115 20.6699c0 9.41016 6.4707 17.3398 15.3398 19.8398
l0.0400391 0.0302734c99.79 28.6201 161.19 67.7295 161.19 93.6201v0.0595703c-0.110352 27.4893 -68.4004 52.4395 -176.4 68.0791v-0.00976562c-0.410156 0.0595703 -0.820312 0.129883 -1.24023 0.129883c-4.89844 0 -8.64941 -3.93848 -8.64941 -8.70996
c0 -0.728516 0.121094 -1.41992 0.291016 -2.11035l-0.0400391 -0.0498047c5.55957 -23.5312 9 -46.9404 10.1689 -70.3496c0.291016 -5.89062 -1.86914 -11.6104 -5.95898 -15.8701c-4.12109 -4.27051 -9.81152 -6.67969 -15.7705 -6.67969h-132.291
c-11.3887 0 -20.8486 8.68848 -21.6885 19.8984c-9.33008 124.28 -115.7 231.46 -228.29 344.88c-61.1104 61.5898 -124.31 125.271 -172.771 194.061c-51.5586 73.1797 -80.1182 143.46 -87.3184 214.89c-0.741211 7.41016 2.43848 14.6904 8.43848 19.21
c3.85156 2.90039 8.5 4.41016 13.21 4.41016c2.61035 0 5.25 -0.481445 7.78027 -1.41992c46.9297 -17.75 94.6797 -32.3799 138.259 -42.4199c8.87109 -2.04004 16.0605 -8.57129 19.0312 -16.3916c31.7402 -85.8984 112.779 -167.409 197.799 -253.079
c3.4707 -3.34082 8.21094 -7.4209 15.9707 -7.4209c7.78125 0 12.5713 4.21191 15.9814 7.4209c85.0205 85.6699 166.049 167.47 197.8 253.359c2.96875 7.83008 10.1504 14.3506 19.0303 16.4004c43.5596 10.0195 91.2793 23.5 138.279 41.2695
c2.5 0.941406 5.14941 1.41992 7.75 1.41992c4.71094 0 9.35938 -1.50977 13.2207 -4.4082c5.85938 -4.43164 9.16016 -12.041 8.43848 -19.2119c-7.20898 -71.4287 -35.7686 -140.84 -87.3193 -214.028c-48.46 -68.79 -111.66 -132.472 -172.771 -194.062
c-4.43945 -4.47852 -8.8584 -8.91992 -13.25 -13.3691c-4.43945 -4.42969 -6.87988 -13.3291 -1.06055 -20.4795c14.3008 -17.5898 27.9805 -35.5508 40.75 -54.0098c17.8213 -25.75 33.0605 -51.0801 45.9209 -76.1201zM370.07 302.81v0
c39.6504 -40.8896 66.3096 -70.7197 88.0801 -98.6895c4.37891 -5.60156 10.2891 -18.6904 2.67969 -32.6299c-21.9297 -40.2803 -34.0303 -78.6104 -36.9102 -116.87c-0.830078 -11.1914 -10.4014 -19.9697 -21.7598 -19.9697h-132.302
c-5.94922 0 -11.709 2.43848 -15.8193 6.68848c-4.09961 4.28027 -6.29004 10.1006 -5.99121 15.9502c1.16113 23.2998 4.55078 46.6201 10.0811 70.04l-0.0810547 0.0800781c0.169922 0.700195 0.291016 1.40039 0.291016 2.13965
c0 4.81055 -3.7793 8.79004 -8.72852 8.79004c-0.400391 0 -0.770508 -0.0595703 -1.16016 -0.119141c-107.73 -15.6406 -175.839 -40.5596 -175.94 -68v-0.0595703c0 -25.8916 61.3906 -65 161.189 -93.6201l0.0693359 -0.129883
c8.83105 -2.53027 15.3115 -10.3604 15.3115 -19.7402c0 -11.4014 -9.53223 -20.6699 -21.2998 -20.6699c-1.7002 0 -3.32031 0.231445 -4.91016 0.599609c-0.0498047 -0.00976562 -0.179688 -0.00976562 -0.200195 -0.00976562
c-134.38 30.6416 -222.67 82.0615 -222.67 140.29c0 69 120.01 130.639 298.75 158.49c10.8799 21.21 23.4902 42.6299 37.9297 64.3496c2.21094 3.33984 8.07031 9.63965 17.9404 9.63965c7.2998 0 12.7393 -3.75 15.4502 -6.5498zM496.75 625.73v0
c-46.6504 44.8193 -71.7207 97.0693 -77.2021 111.6c-0.807617 2.13867 -1.61914 4.54883 -1.61914 7.93848c0 11.6016 9.79199 19.8916 20.0215 19.8916c8.44043 0 32.4795 -2.45996 73.9297 -2.45996h0.270508c41.4482 0 65.4893 2.45996 73.9385 2.45996
c10.2314 0 20.0098 -8.29004 20.0098 -19.8916c0 -3.38867 -0.808594 -5.79883 -1.6084 -7.93848c-5.5 -14.5312 -30.5615 -66.7812 -77.2109 -111.6c-5.23047 -5.03125 -11.1592 -5.97168 -15.25 -5.97168h-0.0390625c-4.08008 0 -10.0098 0.941406 -15.2402 5.97168z" />
    <glyph glyph-name="uniF120" unicode="&#xf120;" 
d="M192 320v64h448v-64h-448zM192 192v64h448v-64h-448zM192 64v64h448v-64h-448zM704 512v64h128v-64h-128zM704 384v64h128v-64h-128zM704 256v64h128v-64h-128zM575.872 704v0c106.368 0 192.448 -86.0156 192.448 -192v-448c0 -106.112 -86.0801 -192 -192.513 -192
h-319.487c-106.24 0 -192.32 85.8877 -192.32 192v448c0 105.984 86.0801 192 192.32 192h319.552zM704.192 64h-0.0644531v448c0 70.6562 -57.4082 128 -128.32 128h-319.487c-70.7842 0 -128.32 -57.3438 -128.32 -128v-448c0 -70.7197 57.5361 -128 128.32 -128h319.552
c70.9121 0 128.32 57.2803 128.32 128zM320.128 640v0h-64.1279v64c0 106.112 85.5684 192 192 192h319.488c106.304 0 192.512 -85.8877 192.512 -192v-448c0 -105.984 -85.376 -192 -191.68 -192h-64.1279l-0.192383 64h64c70.7842 0 128 57.3438 128 128v448
c0 70.7197 -57.6641 128 -128.512 128h-319.488c-70.9756 0 -127.872 -57.2803 -127.872 -128v-64z" />
    <glyph glyph-name="uniF121" unicode="&#xf121;" 
d="M384 384c0 85.3333 42.6667 128 128 128c85.3333 0 128 -42.6667 128 -128s-42.6667 -128 -128 -128c-85.3333 -1.52588e-05 -128 42.6667 -128 128z" />
    <glyph glyph-name="uniF122" unicode="&#xf122;" 
d="M383.833 -64c-70.498 0 -127.833 57.2324 -127.833 127.833v448.167h576v-448.167c0 -70.498 -57.2324 -127.833 -127.833 -127.833h-320.334zM396.8 64h38.4004v320h-38.4004v-320zM524.8 384v-320h38.4004v320h-38.4004zM652.8 384v-320h38.4004v320h-38.4004z
M255.717 704h384.283h64v64c0 35.3467 -28.3975 64 -63.9873 64h-192.025c-35.3389 0 -63.9873 -28.4072 -63.9873 -64v-64l64 1.28027v62.7197h192v-64h192.283c35.1895 0 63.7168 -28.4072 63.7168 -64v-64h-704v64c0 35.3457 28.4697 64 63.7168 64z" />
    <glyph glyph-name="uniF1D1" unicode="&#xf1d1;" 
d="M832 640v0c106.048 0 192 -85.9521 192 -192s-85.9521 -192 -192 -192h-192v256h-256v-256h-192c-106.048 0 -192 85.9521 -192 192s85.9521 192 192 192c26.3037 0 51.2637 -5.3125 74.1123 -14.9121c-33.9844 39.4238 -81.4082 66.9443 -135.232 75.3926
c14.1445 110.079 107.2 195.52 221.12 195.52c75.7764 0 142.528 -37.8877 183.04 -95.4883c30.208 19.7764 66.1758 31.4883 104.96 31.4883c92.5439 0 169.729 -65.4717 187.904 -152.64c-26.5605 -13.376 -50.0479 -31.8721 -69.3125 -54.0166
c22.6562 9.34375 47.3604 14.6562 73.4082 14.6562zM448 -128v128h128v-128h-128zM448 64v384h128v-384h-128z" />
    <glyph glyph-name="uniF1D0" unicode="&#xf1d0;" 
d="M832 640v0v0c106.048 0 192 -85.9521 192 -192c0 -66.1123 -33.6641 -123.84 -84.5439 -158.208l-199.872 199.872l-233.728 -233.664h-313.856c-106.048 0 -192 85.9521 -192 192s85.9521 192 192 192c26.3037 0 51.3281 -5.3125 74.1123 -14.9121
c-33.9844 39.4238 -81.4082 66.9443 -135.232 75.3926c14.1445 110.079 107.2 195.52 221.12 195.52c75.7764 0 142.528 -37.8877 183.04 -95.4883c30.208 19.7764 66.1758 31.4883 104.96 31.4883c92.5439 0 169.729 -65.4717 187.904 -152.64
c-26.5605 -13.376 -50.0479 -31.8721 -69.3125 -54.0166c22.6562 9.34375 47.3604 14.6562 73.4082 14.6562zM416 30.4004v0l323.52 323.52l79.2324 -79.168l-402.752 -402.752l-203.648 203.648l79.168 79.168z" />
    <glyph glyph-name="uniF123" unicode="&#xf123;" 
d="M832 640v0c106.048 0 192 -85.9521 192 -192c0 -103.552 -82.1758 -187.392 -184.832 -191.296l-325.568 327.04l-328.512 -327.04c-102.784 3.71191 -185.088 87.6162 -185.088 191.296c0 106.048 85.9521 192 192 192c26.3037 0 51.2637 -5.3125 74.1123 -14.9121
c-33.9844 39.4238 -81.4082 66.9443 -135.232 75.3926c14.1445 110.079 107.136 195.52 221.12 195.52c75.7764 0 142.528 -37.8877 183.04 -95.4883c30.208 19.7764 66.1758 31.4883 104.96 31.4883c92.5439 0 169.729 -65.4717 187.904 -152.64
c-26.5605 -13.376 -50.0479 -31.8721 -69.3125 -54.0166c22.6562 9.34375 47.3604 14.6562 73.4082 14.6562zM224 160v0l289.28 288l286.72 -288l-64 -64l-160 160v-384h-128v384l-160 -160z" />
    <glyph glyph-name="uniF124" unicode="&#xf124;" 
d="M0 832h1024v-64h-1024v64zM0 704h768v-64h-768v64zM0 576h1024v-64h-1024v64zM0 448h1024v-64h-1024v64zM0 320h640v-64h-640v64zM0 192h1024v-64h-1024v64zM0 64h640v-64h-640v64z" />
    <glyph glyph-name="uniF125" unicode="&#xf125;" 
d="M1024 512v-192h-512v-320l-512 416l512 416v-320h512z" />
    <glyph glyph-name="uniF126" unicode="&#xf126;" 
d="M0 320v192h512v320l512 -416l-512 -416v320h-512z" />
    <glyph glyph-name="uniF128" unicode="&#xf128;" 
d="M448 240c26.333 -15.333 44.333 -36 54 -62c43.334 18 75 45.333 95 82s33 84.333 39 143c-18.333 11.333 -32.917 26.5 -43.75 45.5s-16.25 40.167 -16.25 63.5c0 36.667 12.333 67.166 37 91.5s55 36.5 91 36.5s66.333 -12.166 91 -36.5s37 -54.833 37 -91.5
c0 -26 -6.5 -49.25 -19.5 -69.75s-30.5 -35.917 -52.5 -46.25c-2.33301 -21.333 -5.25 -41.417 -8.75 -60.25s-8.5 -39.167 -15 -61s-14.25 -41.833 -23.25 -60s-20.333 -36.25 -34 -54.25s-29 -33.5 -46 -46.5s-37.417 -24.333 -61.25 -34s-49.75 -16.333 -77.75 -20
c-11.667 -18.667 -27.083 -33.333 -46.25 -44s-40.417 -16 -63.75 -16c-36 0 -66.333 12.167 -91 36.5s-37 54.833 -37 91.5c0 24.333 5.75 46.25 17.25 65.75s27.083 34.917 46.75 46.25v288c-19.667 11.333 -35.25 26.75 -46.75 46.25s-17.25 41.416 -17.25 65.75
c0 36.667 12.333 67.167 37 91.5s55 36.5 91 36.5s66.333 -12.167 91 -36.5s37 -54.833 37 -91.5c0 -24.334 -5.75 -46.25 -17.25 -65.75s-27.083 -34.917 -46.75 -46.25v-288z" />
    <glyph glyph-name="uniF127" unicode="&#xf127;" 
d="M384 589v-346c32 -15 56.333 -36.666 73 -65c58 24.667 111.333 56.666 160 96s85 82 109 128c-26 13.667 -46.833 33.167 -62.5 58.5s-23.5 53.166 -23.5 83.5c0 44 15.666 81.666 47 113s69 47 113 47s81.666 -15.666 113 -47s47 -69 47 -113
c0 -36 -10.833 -68.25 -32.5 -96.75s-49.5 -47.583 -83.5 -57.25c-19 -47.334 -49.666 -94.083 -92 -140.25s-87.5 -85.5 -135.5 -118s-95.166 -57.75 -141.5 -75.75c-9 -35 -27.833 -63.75 -56.5 -86.25s-61.5 -33.75 -98.5 -33.75c-44 0 -81.666 15.666 -113 47
s-47 69 -47 113c0 32 8.91699 61.333 26.75 88s40.917 46.333 69.25 59v346c-28.333 12.667 -51.417 32.333 -69.25 59s-26.75 56 -26.75 88c0 44 15.666 81.666 47 113s69 47 113 47s81.666 -15.666 113 -47s47 -69 47 -113c0 -32 -8.91699 -61.333 -26.75 -88
s-40.917 -46.333 -69.25 -59v0z" />
    <glyph glyph-name="uniF129" unicode="&#xf129;" 
d="M896 448h-256c-0.333008 -14.333 -0.0830078 -28.417 0.75 -42.25s2.25 -27.167 4.25 -40s4.08301 -24.583 6.25 -35.25s5.08301 -21.583 8.75 -32.75s6.75 -20.5 9.25 -28s5.83301 -16.083 10 -25.75s7.25 -16.583 9.25 -20.75s5 -10.167 9 -18
s6.16699 -12.25 6.5 -13.25c13 -26.667 32.916 -53.583 59.75 -80.75s54.666 -50.833 83.5 -71s56.75 -38.417 83.75 -54.75s49.333 -28.667 67 -37l26 -12.5c-69 0 -132.666 5.41699 -191 16.25s-108 24.75 -149 41.75s-78.083 38.167 -111.25 63.5
s-59.917 50.083 -80.25 74.25s-38 51.25 -53 81.25s-25.917 55.917 -32.75 77.75s-12.167 45.5 -16 71s-5.91699 43.167 -6.25 53s-0.5 20.25 -0.5 31.25v1v1h-256l384 384z" />
    <glyph glyph-name="uniF12A" unicode="&#xf12a;" 
d="M640 896h322c19.333 0 34.5 -6.58301 45.5 -19.75s16.5 -29.917 16.5 -50.25v-882c0 -20.333 -5.5 -37.417 -16.5 -51.25s-26.167 -20.75 -45.5 -20.75h-322v128h256v768h-256v128zM765 386l-381 -329v263h-384v128h384v267z" />
    <glyph glyph-name="uniF12B" unicode="&#xf12b;" 
d="M514 131l-330 381h264v384h128v-384h267zM1024 256v-322c0 -19.333 -6.58301 -34.5 -19.75 -45.5s-29.917 -16.5 -50.25 -16.5h-882c-20.333 0 -37.417 5.5 -51.25 16.5s-20.75 26.167 -20.75 45.5v322h128v-256h768v256h128z" />
    <glyph glyph-name="uniF12C" unicode="&#xf12c;" 
d="M576 832v-200c55.667 -14.667 101.583 -45 137.75 -91s54.25 -98.333 54.25 -157c0 -59.334 -18.083 -111.916 -54.25 -157.75s-82.083 -75.917 -137.75 -90.25v-200h-128v200c-55.667 14.333 -101.583 44.416 -137.75 90.25s-54.25 98.416 -54.25 157.75
c0 58.667 18.083 111 54.25 157s82.083 76.333 137.75 91v200h128zM512 224c44 0 81.666 15.583 113 46.75s47 68.916 47 113.25c0 44 -15.666 81.5 -47 112.5s-69 46.5 -113 46.5s-81.666 -15.5 -113 -46.5s-47 -68.5 -47 -112.5c0 -44.334 15.666 -82.083 47 -113.25
s69 -46.75 113 -46.75z" />
    <glyph glyph-name="uniF12D" unicode="&#xf12d;" 
d="M1024 127.96v0l-256 -191.96v127.971h-192c-40.5098 0 -83.3594 51.1992 -126.4 121.309c24.2305 40.8193 47.5801 83.5303 70.0801 124.16c40.1104 -68.1602 80.2305 -117.489 120.32 -117.489h128v127.97zM374.57 585.405v0
c-24.1201 -47.3506 -45.4502 -89.1865 -68.9707 -135.806c-41.3193 72.6504 -79.9199 126.4 -113.6 126.4h-192v127.84s253.28 0.360352 256 0c37.21 0 80.6201 -54.7051 118.57 -118.435zM1024 640l-256 -192v128h-128c-129 0 -259 -512 -384 -512
c-2.71973 -0.359375 -256 0 -256 0v128s97.3799 -1.87012 192 0c104 0 256 512 384 512h192v128l256 -192v0z" />
    <glyph glyph-name="uniF12F" unicode="&#xf12f;" 
d="M320 896h448c53 0 98.25 -18.75 135.75 -56.25s56.25 -82.75 56.25 -135.75v-640c0 -53 -18.75 -98.25 -56.25 -135.75s-82.75 -56.25 -135.75 -56.25h-448c-53 0 -98.25 18.75 -135.75 56.25s-56.25 82.75 -56.25 135.75v640c0 53 18.75 98.25 56.25 135.75
s82.75 56.25 135.75 56.25zM896 64v640c0 35.334 -12.583 65.5 -37.75 90.5s-55.25 37.5 -90.25 37.5h-448c-35 0 -65.083 -12.5 -90.25 -37.5s-37.75 -55.166 -37.75 -90.5v-640c0 -35.334 12.583 -65.5 37.75 -90.5s55.25 -37.5 90.25 -37.5h448
c35 0 65.083 12.5 90.25 37.5s37.75 55.166 37.75 90.5z" />
    <glyph glyph-name="uniF130" unicode="&#xf130;" 
d="M896 448h64v-384c0 -53 -18.75 -98.25 -56.25 -135.75s-82.75 -56.25 -135.75 -56.25h-448c-53 0 -98.25 18.75 -135.75 56.25s-56.25 82.75 -56.25 135.75v640c0 53 18.75 98.25 56.25 135.75s82.75 56.25 135.75 56.25h128v-64h-128c-35 0 -65.083 -12.5 -90.25 -37.5
s-37.75 -55.166 -37.75 -90.5v-640c0 -35.334 12.583 -65.5 37.75 -90.5s55.25 -37.5 90.25 -37.5h448c35 0 65.083 12.5 90.25 37.5s37.75 55.166 37.75 90.5v384zM848 582v-79c0 -15.667 -2.33301 -24.667 -7 -27c-1 -0.666992 -3.41699 -0.5 -7.25 0.5
s-6.41699 2.16699 -7.75 3.5c-58 52.667 -88 79 -90 79c-39 0 -75.666 7.41699 -110 22.25s-61.917 35.25 -82.75 61.25s-31.25 54.166 -31.25 84.5c0 46.334 21.916 86.083 65.75 119.25s96.583 49.75 158.25 49.75c40.667 0 78.166 -7.58301 112.5 -22.75
s61.5 -35.667 81.5 -61.5c20 -25.834 30 -54.083 30 -84.75c0 -30.334 -10.167 -58.416 -30.5 -84.25s-47.5 -46.083 -81.5 -60.75zM640 704v64h-64v-64h64zM768 704v64h-64v-64h64zM832 704h64v64h-64v-64zM769 384v-64h-448v64h448zM767 256v-64h-448v64h448zM767 128v-64
h-448v64h448z" />
    <glyph glyph-name="uniF12E" unicode="&#xf12e;" 
d="M320 896h448c53 0 98.25 -18.75 135.75 -56.25s56.25 -82.75 56.25 -135.75v-640c0 -53 -18.75 -98.25 -56.25 -135.75s-82.75 -56.25 -135.75 -56.25h-448c-53 0 -98.25 18.75 -135.75 56.25s-56.25 82.75 -56.25 135.75v640c0 53 18.75 98.25 56.25 135.75
s82.75 56.25 135.75 56.25zM896 64v640c0 35.334 -12.583 65.5 -37.75 90.5s-55.25 37.5 -90.25 37.5h-448c-35 0 -65.083 -12.5 -90.25 -37.5s-37.75 -55.166 -37.75 -90.5v-640c0 -35.334 12.583 -65.5 37.75 -90.5s55.25 -37.5 90.25 -37.5h448
c35 0 65.083 12.5 90.25 37.5s37.75 55.166 37.75 90.5zM768 448h-448v64h448v-64zM768 320h-448v64h448v-64zM768 192h-448v64h448v-64zM768 64h-448v64h448v-64z" />
    <glyph glyph-name="uniF131" unicode="&#xf131;" 
d="M512 640h384c17.667 0 32.75 -6.16699 45.25 -18.5s18.75 -27.5 18.75 -45.5v-512c0 -17.333 -6.33301 -32.333 -19 -45s-27.667 -19 -45 -19h-767c-17.333 0 -32.333 6.33301 -45 19s-19 27.667 -19 45v576v64c0 18 6.25 33.167 18.75 45.5s27.583 18.5 45.25 18.5h320
c17.667 0 32.583 -6.16699 44.75 -18.5s18.25 -27.5 18.25 -45.5v-64z" />
    <glyph glyph-name="uniF132" unicode="&#xf132;" 
d="M896 449h64c24.333 0.666992 42.583 -6.75 54.75 -22.25s12.917 -35.417 2.25 -59.75l-121 -302v-1v-1c-5 -11.667 -10.583 -21.75 -16.75 -30.25s-11.917 -14.667 -17.25 -18.5s-10.333 -6.91699 -15 -9.25s-8.33301 -3.66699 -11 -4h-4h-1
c0 -0.666992 0.333008 -1 1 -1h-768c-18 0 -33.167 6.16699 -45.5 18.5s-18.5 27.5 -18.5 45.5v640c0 18 6.16699 33.167 18.5 45.5s27.5 18.5 45.5 18.5h320c18 0 33.167 -6.16699 45.5 -18.5s18.5 -27.5 18.5 -45.5v-64h384c18 0 33.167 -6.16699 45.5 -18.5
s18.5 -27.5 18.5 -45.5v-127zM832 576h-448v128h-320v-639l128 320c0.333008 1.33301 1 3.16699 2 5.5s3.25 6.58301 6.75 12.75s7.5 11.833 12 17s10.583 10.583 18.25 16.25s16 9.83301 25 12.5h576v127z" />
    <glyph glyph-name="uniF133" unicode="&#xf133;" 
d="M1024 128l-256 -192v128h-199c-23.333 1 -45.5 5.16699 -66.5 12.5s-39.5 16.583 -55.5 27.75s-31.333 23.417 -46 36.75s-28.083 26.667 -40.25 40s-23.917 25.5 -35.25 36.5s-22.917 20 -34.75 27s-23.417 10.833 -34.75 11.5h-256v256h256
c11.333 0.666992 22.917 4.5 34.75 11.5s23.417 16 34.75 27s23.083 23.167 35.25 36.5s25.583 26.667 40.25 40s30 25.583 46 36.75s34.5 20.417 55.5 27.75s43.167 11.5 66.5 12.5h199v128l256 -192l-256 -192v128h-192c-8.33301 -0.666992 -16.5 -2.16699 -24.5 -4.5
s-14.833 -4.83301 -20.5 -7.5s-12.25 -6.58301 -19.75 -11.75s-13.167 -9.33301 -17 -12.5s-9.75 -8.16699 -17.75 -15s-13.5 -11.417 -16.5 -13.75c-31.334 -33 -56.667 -75 -76 -126c7.33301 -19.667 17.583 -41.417 30.75 -65.25s28.25 -44.75 45.25 -62.75
c3 -2.33301 8.5 -6.91699 16.5 -13.75s13.917 -11.833 17.75 -15s9.5 -7.33301 17 -12.5s14.083 -9.08301 19.75 -11.75s12.5 -5.16699 20.5 -7.5s16.167 -3.83301 24.5 -4.5h192v128z" />
    <glyph glyph-name="uniF134" unicode="&#xf134;" 
d="M447 576h-255l320 320l320 -320h-256v-448h-129v448zM704 448h256c20 0 35.667 -5.41699 47 -16.25s17 -26.75 17 -47.75v-449c0 -19.333 -5.75 -34.667 -17.25 -46s-27.083 -17 -46.75 -17h-896c-19.333 0 -34.833 5.83301 -46.5 17.5s-17.5 27.167 -17.5 46.5v448
c0 21 5.66699 36.917 17 47.75s27 16.25 47 16.25h256v-128h-192v-320h769v320h-193v128z" />
    <glyph glyph-name="uniF136" unicode="&#xf136;" 
d="M384 896h447c53.334 0 98.833 -18.75 136.5 -56.25s56.5 -82.75 56.5 -135.75v-512c0 -42.334 -12.75 -80.416 -38.25 -114.25s-58.083 -57.083 -97.75 -69.75c-12 -40 -34.916 -72.667 -68.75 -98s-72.25 -38 -115.25 -38h-448c-53 0 -98.25 18.75 -135.75 56.25
s-56.25 82.75 -56.25 135.75v512c0 43 12.667 81.416 38 115.25s58 56.75 98 68.75c12 40 34.916 72.667 68.75 98s72.25 38 115.25 38zM959 192v512c0 35 -12.5 65.083 -37.5 90.25s-55.166 37.75 -90.5 37.75h-447c-23.667 0 -45.25 -5.83301 -64.75 -17.5
s-34.917 -27.167 -46.25 -46.5h431c53 0 98.25 -18.75 135.75 -56.25s56.25 -82.75 56.25 -135.75v-495c19.333 11.667 34.667 27.333 46 47s17 41 17 64zM833 63v512c0 35.334 -12.583 65.5 -37.75 90.5s-55.583 37.5 -91.25 37.5h-447c-35.334 0 -65.5 -12.5 -90.5 -37.5
s-37.5 -55.166 -37.5 -90.5v-512c0 -35.334 12.5 -65.5 37.5 -90.5s55.166 -37.5 90.5 -37.5h447c35.667 0 66.083 12.5 91.25 37.5s37.75 55.166 37.75 90.5zM443 185l3 7c-5 9 -11.083 17.417 -18.25 25.25s-13.333 13.833 -18.5 18s-15.417 11.75 -30.75 22.75
s-27.5 20 -36.5 27c-15.667 11.333 -30.333 29.25 -44 53.75s-26.333 62.25 -38 113.25c-20.333 5.66699 -36.75 16.75 -49.25 33.25s-18.75 36.083 -18.75 58.75c0 27.667 9.16699 50.583 27.5 68.75s41.167 27.25 68.5 27.25c27 0 49.75 -9.08301 68.25 -27.25
s27.75 -41.083 27.75 -68.75c0 -21.667 -5.75 -40.583 -17.25 -56.75s-26.75 -27.25 -45.75 -33.25c17.667 -70 40 -113.333 67 -130c3.33301 -2 9.66699 -5.91699 19 -11.75s16.167 -10.167 20.5 -13s10 -6.91699 17 -12.25s13.25 -10.667 18.75 -16
s10.75 -11.333 15.75 -18c5 6.66699 10.25 12.667 15.75 18s11.75 10.667 18.75 16s12.667 9.41699 17 12.25s11.167 7.16699 20.5 13s15.667 9.75 19 11.75c27.334 17.667 49.667 61 67 130c-18.333 6.66699 -33.083 18.083 -44.25 34.25s-16.75 34.75 -16.75 55.75
c0 27.667 9.16699 50.583 27.5 68.75s41.166 27.25 68.5 27.25c27 0 49.75 -9.08301 68.25 -27.25s27.75 -41.083 27.75 -68.75c0 -22.667 -6.58301 -42.417 -19.75 -59.25s-29.917 -28.083 -50.25 -33.75c-20 -85.667 -47.333 -141 -82 -166c-9 -7 -21.167 -16 -36.5 -27
s-25.583 -18.583 -30.75 -22.75s-11.333 -10.167 -18.5 -18s-13.25 -16.25 -18.25 -25.25l2 -6c18.333 -6.66699 33.25 -18.083 44.75 -34.25s17.25 -34.75 17.25 -55.75c0 -27.667 -9.25 -50.583 -27.75 -68.75s-41.25 -27.25 -68.25 -27.25
c-27.333 0 -50.167 9.08301 -68.5 27.25s-27.5 41.083 -27.5 68.75c0 21 5.33301 39.417 16 55.25s25 27.083 43 33.75z" />
    <glyph glyph-name="uniF137" unicode="&#xf137;" 
d="M384 896h447c53.334 0 98.833 -18.75 136.5 -56.25s56.5 -82.75 56.5 -135.75v-512c0 -42.334 -12.75 -80.416 -38.25 -114.25s-58.083 -57.083 -97.75 -69.75c-12 -40 -34.916 -72.667 -68.75 -98s-72.25 -38 -115.25 -38h-448c-53 0 -98.25 18.75 -135.75 56.25
s-56.25 82.75 -56.25 135.75v512c0 43 12.667 81.416 38 115.25s58 56.75 98 68.75c12 40 34.916 72.667 68.75 98s72.25 38 115.25 38zM959 192v512c0 35 -12.5 65.083 -37.5 90.25s-55.166 37.75 -90.5 37.75h-447c-23.667 0 -45.25 -5.83301 -64.75 -17.5
s-34.917 -27.167 -46.25 -46.5h431c53 0 98.25 -18.75 135.75 -56.25s56.25 -82.75 56.25 -135.75v-495c19.333 11.667 34.667 27.333 46 47s17 41 17 64zM833 63v512c0 35.334 -12.583 65.5 -37.75 90.5s-55.583 37.5 -91.25 37.5h-447c-35.334 0 -65.5 -12.5 -90.5 -37.5
s-37.5 -55.166 -37.5 -90.5v-512c0 -35.334 12.5 -65.5 37.5 -90.5s55.166 -37.5 90.5 -37.5h447c35.667 0 66.083 12.5 91.25 37.5s37.75 55.166 37.75 90.5zM640 320v-192h-320v192h64v192h192v-192h64zM512 448h-64v-128h64v128z" />
    <glyph glyph-name="uniF135" unicode="&#xf135;" 
d="M384 896h447c53.334 0 98.833 -18.75 136.5 -56.25s56.5 -82.75 56.5 -135.75v-512c0 -42.334 -12.75 -80.416 -38.25 -114.25s-58.083 -57.083 -97.75 -69.75c-12 -40 -34.916 -72.667 -68.75 -98s-72.25 -38 -115.25 -38h-448c-53 0 -98.25 18.75 -135.75 56.25
s-56.25 82.75 -56.25 135.75v512c0 43 12.667 81.416 38 115.25s58 56.75 98 68.75c12 40 34.916 72.667 68.75 98s72.25 38 115.25 38zM959 192v512c0 35 -12.5 65.083 -37.5 90.25s-55.166 37.75 -90.5 37.75h-447c-23.667 0 -45.25 -5.83301 -64.75 -17.5
s-34.917 -27.167 -46.25 -46.5h431c53 0 98.25 -18.75 135.75 -56.25s56.25 -82.75 56.25 -135.75v-495c19.333 11.667 34.667 27.333 46 47s17 41 17 64zM320 703h-63c-35.334 0 -65.5 -12.5 -90.5 -37.5s-37.5 -55.166 -37.5 -90.5v-512c0 -35.334 12.5 -65.5 37.5 -90.5
s55.166 -37.5 90.5 -37.5h63v768zM833 63v512c0 35.334 -12.583 65.5 -37.75 90.5s-55.583 37.5 -91.25 37.5h-320v-510c17.333 -0.333008 33.75 0.333008 49.25 2s32.083 5.25 49.75 10.75s32.833 12.917 45.5 22.25s23.5 22.25 32.5 38.75s14 35.917 15 58.25
c-19 6.66699 -34.417 18.167 -46.25 34.5s-17.75 35.167 -17.75 56.5c0 27.667 9.25 50.583 27.75 68.75s41.25 27.25 68.25 27.25s49.75 -9.08301 68.25 -27.25s27.75 -41.083 27.75 -68.75c0 -21.667 -5.75 -40.583 -17.25 -56.75s-26.75 -27.583 -45.75 -34.25
c-0.666992 -57.667 -24.833 -105.166 -72.5 -142.5s-109.166 -55.5 -184.5 -54.5v-193h320c35.667 0 66.083 12.5 91.25 37.5s37.75 55.166 37.75 90.5z" />
    <glyph glyph-name="uniF138" unicode="&#xf138;" 
d="M192 896h640c53 0 98.25 -18.75 135.75 -56.25s56.25 -82.75 56.25 -135.75v-640c0 -53 -18.75 -98.25 -56.25 -135.75s-82.75 -56.25 -135.75 -56.25h-640c-53 0 -98.25 18.75 -135.75 56.25s-56.25 82.75 -56.25 135.75v640c0 53 18.75 98.25 56.25 135.75
s82.75 56.25 135.75 56.25zM960 64v640c0 35.334 -12.583 65.5 -37.75 90.5s-55.25 37.5 -90.25 37.5h-640c-35 0 -65.083 -12.5 -90.25 -37.5s-37.75 -55.166 -37.75 -90.5v-640c0 -35.334 12.583 -65.5 37.75 -90.5s55.25 -37.5 90.25 -37.5h640
c35 0 65.083 12.5 90.25 37.5s37.75 55.166 37.75 90.5zM193 575h192c20.667 0.333008 38.833 2.75 54.5 7.25s27 8.75 34 12.75s17.417 11.417 31.25 22.25s23.917 18.417 30.25 22.75c27.667 19.667 54.167 34.833 79.5 45.5s55.5 16.167 90.5 16.5l128 1v-320h-128
c-18.667 0 -36.167 1.66699 -52.5 5s-31.75 8.5 -46.25 15.5s-26.5 13.417 -36 19.25s-21.25 13.583 -35.25 23.25c-6.33301 4.33301 -16.417 11.917 -30.25 22.75s-24.25 18.25 -31.25 22.25s-18.333 8.25 -34 12.75s-33.833 6.91699 -54.5 7.25h-192v64zM617 192h216v-64
h-193c-4 0 -12.833 0.0830078 -26.5 0.25s-23 0.166992 -28 0s-13.083 -0.5 -24.25 -1s-19.833 -1.41699 -26 -2.75s-13.667 -3 -22.5 -5s-16.667 -4.75 -23.5 -8.25s-13.583 -7.58301 -20.25 -12.25c-21 -14.667 -40.833 -24 -59.5 -28s-48.5 -6.33301 -89.5 -7h-128v191
h128c41 -0.666992 70.833 -3 89.5 -7s38.5 -13.333 59.5 -28c26.667 -19.333 76 -29 148 -29v1z" />
    <glyph glyph-name="uniF139" unicode="&#xf139;" 
d="M512 704h384c17.333 0 32.333 -6.33301 45 -19s19 -27.667 19 -45v-256h-256v64c0 20.667 -5.5 36.5 -16.5 47.5s-26.833 16.5 -47.5 16.5h-319c-42.667 0 -64 -21.333 -64 -64v-384h-128c-17.333 0 -32.333 6.33301 -45 19s-19 27.667 -19 45v568v72
c0 17.333 6.33301 32.333 19 45s27.667 19 45 19h320c17.333 0 32.167 -6.25 44.5 -18.75s18.5 -27.583 18.5 -45.25v-64zM640 320h272c13 0 24.25 -4.75 33.75 -14.25s14.25 -20.75 14.25 -33.75v-289c0 -13 -4.75 -24.083 -14.25 -33.25s-20.75 -13.75 -33.75 -13.75h-544
c-13 0 -24.083 4.58301 -33.25 13.75s-13.75 20.25 -13.75 33.25v418c0 13 4.5 24.083 13.5 33.25s19.833 13.75 32.5 13.75h227c13 0 23.917 -4.58301 32.75 -13.75s13.25 -20.25 13.25 -33.25v-81z" />
    <glyph glyph-name="uniF13B" unicode="&#xf13b;" 
d="M453.12 768c10.8799 -1.28027 277.12 -272 411.52 -409.664c42.2402 -42.8799 41.6006 -112 -0.639648 -154.24c-52.4805 -52.416 -122.88 -120.96 -176.64 -173.376c-42.8799 -41.5996 -112 -40.96 -154.88 1.28027c-135.681 134.4 -403.841 400.64 -404.48 410.88
v217.024c0 59.4561 48.6396 108.096 108.16 108.096h216.96zM320 512c35.3467 0 64 28.6543 64 64s-28.6533 64 -64 64s-64 -28.6543 -64 -64s28.6533 -64 64 -64z" />
    <glyph glyph-name="uniF13A" unicode="&#xf13a;" 
d="M443.307 832c12.6934 -1.49316 323.307 -317.333 480.106 -477.941c49.2803 -50.0264 48.5332 -130.667 -0.746094 -179.946c-61.2266 -61.1523 -143.36 -141.12 -206.08 -202.272c-50.0273 -48.5332 -130.667 -47.7861 -180.693 1.49316
c-158.294 156.8 -471.146 467.414 -471.894 479.36v253.194c0 69.3652 56.7471 126.112 126.187 126.112h253.12zM288 516.267c49.4844 0 89.5996 40.1152 89.5996 89.6006c0 49.4844 -40.1152 89.5996 -89.5996 89.5996s-89.5996 -40.1152 -89.5996 -89.5996
c0 -49.4854 40.1152 -89.6006 89.5996 -89.6006z" />
    <glyph glyph-name="uniF13C" unicode="&#xf13c;" 
d="M512 -128c-69.334 0 -135.583 13.583 -198.75 40.75s-117.583 63.583 -163.25 109.25s-82.083 100.083 -109.25 163.25s-40.75 129.416 -40.75 198.75s13.583 135.583 40.75 198.75s63.583 117.583 109.25 163.25s100.083 82.083 163.25 109.25
s129.416 40.75 198.75 40.75s135.583 -13.583 198.75 -40.75s117.583 -63.583 163.25 -109.25s82.083 -100.083 109.25 -163.25s40.75 -129.416 40.75 -198.75s-13.583 -135.583 -40.75 -198.75s-63.583 -117.583 -109.25 -163.25s-100.083 -82.083 -163.25 -109.25
s-129.416 -40.75 -198.75 -40.75zM512 797c-56 0 -109.5 -10.917 -160.5 -32.75s-94.916 -51.166 -131.75 -88s-66.167 -80.75 -88 -131.75s-32.75 -104.5 -32.75 -160.5s10.917 -109.5 32.75 -160.5s51.166 -94.916 88 -131.75s80.75 -66.167 131.75 -88
s104.5 -32.75 160.5 -32.75s109.5 10.917 160.5 32.75s94.916 51.166 131.75 88s66.167 80.75 88 131.75s32.75 104.5 32.75 160.5s-10.917 109.5 -32.75 160.5s-51.166 94.916 -88 131.75s-80.75 66.167 -131.75 88s-104.5 32.75 -160.5 32.75zM648 610l90 -90l-362 -362
l-90 90z" />
    <glyph glyph-name="uniF13D" unicode="&#xf13d;" 
d="M512 -128c-69.334 0 -135.583 13.583 -198.75 40.75s-117.583 63.583 -163.25 109.25s-82.083 100.083 -109.25 163.25s-40.75 129.416 -40.75 198.75s13.583 135.583 40.75 198.75s63.583 117.583 109.25 163.25s100.083 82.083 163.25 109.25
s129.416 40.75 198.75 40.75s135.583 -13.583 198.75 -40.75s117.583 -63.583 163.25 -109.25s82.083 -100.083 109.25 -163.25s40.75 -129.416 40.75 -198.75s-13.583 -135.583 -40.75 -198.75s-63.583 -117.583 -109.25 -163.25s-100.083 -82.083 -163.25 -109.25
s-129.416 -40.75 -198.75 -40.75zM512 797c-56 0 -109.5 -10.917 -160.5 -32.75s-94.916 -51.166 -131.75 -88s-66.167 -80.75 -88 -131.75s-32.75 -104.5 -32.75 -160.5s10.917 -109.5 32.75 -160.5s51.166 -94.916 88 -131.75s80.75 -66.167 131.75 -88
s104.5 -32.75 160.5 -32.75s109.5 10.917 160.5 32.75s94.916 51.166 131.75 88s66.167 80.75 88 131.75s32.75 104.5 32.75 160.5s-10.917 109.5 -32.75 160.5s-51.166 94.916 -88 131.75s-80.75 66.167 -131.75 88s-104.5 32.75 -160.5 32.75zM768 448v-128h-512v128h512z
" />
    <glyph glyph-name="uniF13E" unicode="&#xf13e;" 
d="M512 -128c-69.334 0 -135.583 13.583 -198.75 40.75s-117.583 63.583 -163.25 109.25s-82.083 100.083 -109.25 163.25s-40.75 129.416 -40.75 198.75s13.583 135.583 40.75 198.75s63.583 117.583 109.25 163.25s100.083 82.083 163.25 109.25
s129.416 40.75 198.75 40.75s135.583 -13.583 198.75 -40.75s117.583 -63.583 163.25 -109.25s82.083 -100.083 109.25 -163.25s40.75 -129.416 40.75 -198.75s-13.583 -135.583 -40.75 -198.75s-63.583 -117.583 -109.25 -163.25s-100.083 -82.083 -163.25 -109.25
s-129.416 -40.75 -198.75 -40.75zM512 797c-56 0 -109.5 -10.917 -160.5 -32.75s-94.916 -51.166 -131.75 -88s-66.167 -80.75 -88 -131.75s-32.75 -104.5 -32.75 -160.5s10.917 -109.5 32.75 -160.5s51.166 -94.916 88 -131.75s80.75 -66.167 131.75 -88
s104.5 -32.75 160.5 -32.75s109.5 10.917 160.5 32.75s94.916 51.166 131.75 88s66.167 80.75 88 131.75s32.75 104.5 32.75 160.5s-10.917 109.5 -32.75 160.5s-51.166 94.916 -88 131.75s-80.75 66.167 -131.75 88s-104.5 32.75 -160.5 32.75zM384 384
c0 -17.333 -6.33301 -32.333 -19 -45s-27.667 -19 -45 -19s-32.333 6.33301 -45 19s-19 27.667 -19 45s6.33301 32.333 19 45s27.667 19 45 19s32.333 -6.33301 45 -19s19 -27.667 19 -45zM576 384c0 -17.333 -6.33301 -32.333 -19 -45s-27.667 -19 -45 -19
s-32.333 6.33301 -45 19s-19 27.667 -19 45s6.33301 32.333 19 45s27.667 19 45 19s32.333 -6.33301 45 -19s19 -27.667 19 -45zM768 384c0 -17.333 -6.33301 -32.333 -19 -45s-27.667 -19 -45 -19s-32.333 6.33301 -45 19s-19 27.667 -19 45s6.33301 32.333 19 45
s27.667 19 45 19s32.333 -6.33301 45 -19s19 -27.667 19 -45z" />
    <glyph glyph-name="uniF13F" unicode="&#xf13f;" 
d="M960 608v-544c0 -53 -18.75 -98.25 -56.25 -135.75s-82.75 -56.25 -135.75 -56.25h-448c-53 0 -98.25 18.75 -135.75 56.25s-56.25 82.75 -56.25 135.75v640c0 53 18.75 98.25 56.25 135.75s82.75 56.25 135.75 56.25h352zM896 576h-256v256h-320
c-35 0 -65.333 -12.333 -91 -37c-24.667 -25.667 -37 -56 -37 -91v-640c0 -35 12.333 -65.333 37 -91c25.667 -24.667 56 -37 91 -37h448c35 0 65.333 12.333 91 37c24.667 25.667 37 56 37 91v512zM704 640h133l-133 133v-133z" />
    <glyph glyph-name="uniF140" unicode="&#xf140;" 
d="M832.064 373.76l-307.2 -309.76h-24.96l-307.904 309.76l71.6797 72.3838l184.32 -185.023v346.88c5.75977 64 28.7998 96 64 96s57.0244 -23.6797 64 -96v-346.24l186.24 182.4l69.8242 -70.4004v0z" />
    <glyph glyph-name="uniF141" unicode="&#xf141;" 
d="M224 544h576v128h-576v-128zM224 352h576v128h-576v-128zM224 160h576v128h-576v-128z" />
    <glyph glyph-name="uniF143" unicode="&#xf143;" 
d="M252.096 316.099v0l421.761 421.76c49.9199 49.9199 112 33.2803 161.92 -16.6396l10.8799 -10.8799c49.9199 -49.9199 69.1201 -114.561 19.2002 -164.48l-421.761 -421.76l-252.096 -61.4404zM282.24 269.379v0l-69.1201 -183.04l197.12 80.6396z" />
    <glyph glyph-name="uniF142" unicode="&#xf142;" 
d="M199 301l499 495c19 19 39.917 30.25 62.75 33.75s45 0.5 66.5 -9s42.417 -24.417 62.75 -44.75l13 -12c20.333 -20.333 35.417 -41.417 45.25 -63.25s13.167 -44.333 10 -67.5s-14.25 -44.25 -33.25 -63.25l-498 -495l-299 -76zM168 41l187 51l-132 127z" />
    <glyph glyph-name="uniF144" unicode="&#xf144;" 
d="M128 640v64h768v-64h-768zM192 384v64h640v-64h-640zM256 512v64h512v-64h-512zM256 128v64h512v-64h-512zM320 256v64h384v-64h-384z" />
    <glyph glyph-name="uniF145" unicode="&#xf145;" 
d="M128 640v64h768v-64h-768zM128 384v64h640v-64h-640zM128 512v64h512v-64h-512zM128 128v64h512v-64h-512zM128 256v64h448v-64h-448z" />
    <glyph glyph-name="uniF146" unicode="&#xf146;" 
d="M128 640v64h768v-64h-768zM256 384v64h640v-64h-640zM384 512v64h512v-64h-512zM384 128v64h512v-64h-512zM448 256v64h448v-64h-448z" />
    <glyph glyph-name="uniF147" unicode="&#xf147;" 
d="M256 768h295.781c80.625 0 137.969 -24.0625 172.031 -72.1875c20 -28.4375 30 -61.25 30 -98.4375c0 -43.4375 -12.3438 -79.0625 -37.0312 -106.875c-12.8125 -14.6875 -31.25 -28.125 -55.3125 -40.3125c35.3125 -13.4375 61.7188 -28.5938 79.2188 -45.4688
c30.9375 -30 46.4062 -71.4062 46.4062 -124.219c0 -44.375 -13.9062 -84.5312 -41.7188 -120.469c-41.5625 -53.75 -107.656 -80.625 -198.281 -80.625h-291.094v688.594zM517.094 476.906c39.375 0 70 5.46875 91.875 16.4062
c34.375 17.1875 51.5625 48.125 51.5625 92.8125c0 45 -18.2812 75.3125 -54.8438 90.9375c-20.625 8.75 -51.25 13.125 -91.875 13.125h-166.406v-213.281h169.688zM548.5 159.094c57.1875 0 97.9688 16.5625 122.344 49.6875
c15.3125 20.9375 22.9688 46.25 22.9688 75.9375c0 50 -22.3438 84.0625 -67.0312 102.188c-23.75 9.6875 -55.1562 14.5312 -94.2188 14.5312h-185.156v-242.344h201.094z" />
    <glyph glyph-name="uniF148" unicode="&#xf148;" 
d="M465.281 752.594h105.469l249.844 -688.594h-102.188l-69.8438 206.25h-272.344l-74.5312 -206.25h-95.625zM618.562 346.188l-104.531 304.219l-111.094 -304.219h215.625z" />
    <glyph glyph-name="uniF149" unicode="&#xf149;" 
d="M160 384c0 240.859 111.055 352 352 352c240.859 0 352 -111.055 352 -352c0 -240.859 -111.055 -352 -352 -352c-240.859 0 -352 111.055 -352 352zM96 384c0 -271.055 144.859 -416 416 -416c271.055 0 416 144.859 416 416c0 271.055 -144.859 416 -416 416
c-271.055 0 -416 -144.859 -416 -416zM352 384h128v224h-128v-224zM544 384h128v224h-128v-224zM726.04 290.4q-105.263 -100 -214.04 -100q-108.777 0 -214.04 100l44.0801 46.3994q86.7371 -82.3997 169.96 -82.3997q83.2229 0 169.96 82.3997z" />
    <glyph glyph-name="uniF14A" unicode="&#xf14a;" 
d="M438.5 104h99.5v-104h-99.5v104zM331 678.25c40.667 43.834 96.5 65.75 167.5 65.75c65.667 0 118.25 -18.75 157.75 -56.25s59.25 -85.416 59.25 -143.75c0 -35.334 -7.25 -64 -21.75 -86s-43.75 -54.333 -87.75 -97c-32 -31 -52.75 -57.25 -62.25 -78.75
s-14.25 -53.25 -14.25 -95.25h-89c0 47.667 5.66699 86.083 17 115.25s36.166 62.583 74.5 100.25l40 39.5c12 11.333 21.667 23.167 29 35.5c13.333 21.667 20 44.167 20 67.5c0 32.667 -9.75 61 -29.25 85s-51.75 36 -96.75 36c-55.667 0 -94.167 -20.666 -115.5 -62
c-12 -23 -18.833 -56.166 -20.5 -99.5h-89c0 72 20.333 129.916 61 173.75z" />
    <glyph glyph-name="uniF14B" unicode="&#xf14b;" 
d="M192 640v64h576v-64h-576zM192 128v64h576v-64h-576zM192 512v64h512v-64h-512zM192 0v64h512v-64h-512zM128 320v64h768v-64h-768z" />
    <glyph glyph-name="uniF14C" unicode="&#xf14c;" 
d="M256 512v128l192 -160l-192 -160v128h-128v64h128zM128 704v64h768v-64h-768zM512 512v128h384v-128h-384zM512 320v128h384v-128h-384zM128 192v64h768v-64h-768zM128 64v64h768v-64h-768z" />
    <glyph glyph-name="uniF14D" unicode="&#xf14d;" 
d="M636.8 704l-140.8 -576h144v-64h-384v64h156.8l131.2 576h-160v64h384v-64h-131.2z" />
    <glyph glyph-name="uniF14E" unicode="&#xf14e;" 
d="M0 -64v896h1024v-896h-1024zM960 768h-896v-768h896v768zM192 128v512h320v-512h-320zM640 128v512h192v-512h-192z" />
    <glyph glyph-name="uniF14F" unicode="&#xf14f;" 
d="M448 640v64h512v-64h-512zM448 128v64h512v-64h-512zM448 384v64h384v-64h-384zM128 160c0 64 32 96 96 96s96 -32 96 -96s-32 -96 -96 -96s-96 32 -96 96zM128 416c0 64 32 96 96 96s96 -32 96 -96s-32 -96 -96 -96s-96 32 -96 96zM128 672c0 64 32 96 96 96
s96 -32 96 -96s-32 -96 -96 -96s-96 32 -96 96z" />
    <glyph glyph-name="uniF150" unicode="&#xf150;" 
d="M384 640v64h512v-64h-512zM384 128v64h512v-64h-512zM384 384v64h384v-64h-384zM160 768h32h64v-128h32v-64h-32h-64h-32v64h32v64h-32v64zM128 512h160v-64h-32v-32h-64v32h-64v64zM128 320v64h192v-64h-192zM128 192v64h160v-64h-160zM224 128v64h96v-64h-96zM128 64
v64h160v-64h-160z" />
    <glyph glyph-name="uniF151" unicode="&#xf151;" 
d="M64 704v64h64v-64h-64zM256 512v64h64v-64h-64zM64 320v64h64v-64h-64zM256 128v64h64v-64h-64zM64 -64v64h64v-64h-64zM256 704v64h576v-64h-576zM448 512v64h576v-64h-576zM256 320v64h576v-64h-576zM448 128v64h576v-64h-576zM192 -64v64h576v-64h-576z" />
    <glyph glyph-name="uniF152" unicode="&#xf152;" 
d="M327.337 361.143l20.9424 119.771c20.9434 119.771 91.0576 181.943 195.772 181.943c60.0977 0 107.447 -21.0293 132.943 -61.2578l23.6748 52.1143h77.3984l-59.1875 -332.8c-6.37305 -34.7422 9.10645 -53.9424 34.6016 -53.9424
c44.6182 0 119.285 81.3711 119.285 237.714c0 150.857 -98.3418 245.028 -262.244 245.028c-226.731 0 -410.667 -165.485 -410.667 -422.399c0 -150.857 98.3418 -245.028 263.155 -245.028c70.1133 0 135.675 16.457 193.951 47.542l31.8691 -78.6279
c-68.292 -32.9141 -144.78 -51.2002 -225.82 -51.2002c-222.18 0 -354.212 126.172 -354.212 327.314c0 305.371 224.911 504.686 501.724 504.686c221.269 0 353.301 -126.172 353.301 -327.314c0 -202.057 -114.731 -321.828 -222.179 -321.828
c-53.7236 0 -91.9678 17.3711 -112.91 65.8281c-35.5127 -49.3711 -90.1465 -74.9717 -157.529 -74.9717c-104.715 0 -164.812 67.6572 -143.869 187.429zM451.174 488.229l-23.6748 -134.4c-10.0156 -57.5996 24.5859 -92.3428 77.3984 -92.3428
c59.1875 0 109.269 38.4004 121.105 104.229l20.0332 112.458c10.9268 59.4277 -30.0488 96.9141 -91.0576 96.9141c-59.1865 0 -93.7881 -30.1719 -103.805 -86.8574z" />
    <glyph glyph-name="uniF153" unicode="&#xf153;" 
d="M316.8 512h128v-64h-132.479l4.47949 -128l-188.8 160l188.8 160v-128zM128 704v64h768v-64h-768zM512 512v128h384v-128h-384zM512 320v128h384v-128h-384zM128 192v64h768v-64h-768zM128 64v64h768v-64h-768z" />
    <glyph glyph-name="uniF154" unicode="&#xf154;" 
d="M64 704v64h128v-64h-128zM192 576v0h-128v64h128v64h64v-224v-32h-192v64h128v64zM0 512v64h64v-64h-64zM858 704.889l57.9033 -384.889h108.097v-64h-98.4678l29.1553 -193.799h-95.375l-24.5 192.5h-254.188l-110.25 -192.5h-89.25l114.115 193.799h-367.24v64h404.926
l226.637 384.889h98.4375zM821.58 320l-37.0801 283.114l-163.587 -283.114h200.667v0z" />
    <glyph glyph-name="uniF155" unicode="&#xf155;" 
d="M211.2 139.25h151.375c-99.167 62.709 -147.729 152.979 -145.688 272.562c4.66699 196.293 104.415 296.625 299.25 301c194.542 -4.375 294.291 -104.707 299.25 -301c1.75 -119.584 -46.958 -209.854 -146.125 -270.812l151.375 -1.75v-75.25h-248.062v75.25
c105.584 58.625 157.792 149.187 156.625 271.688c0 65.042 -17.9375 119 -53.8125 161.875c-35.875 42.584 -88.958 64.167 -159.25 64.75c-70.001 -0.583008 -122.938 -22.166 -158.812 -64.75c-36.459 -42.875 -54.6875 -96.833 -54.6875 -161.875
c-1.16699 -122.501 51.1865 -213.062 157.062 -271.688v-75.25h-248.5v75.25z" />
    <glyph glyph-name="uniF156" unicode="&#xf156;" 
d="M384 320v128h-192v64h192v128h64v-128h192v128h64v-128h192v-64h-192v-128h192v-64h-192v-128h-64v128h-192v-128h-64v128h-192v64h192zM448 320h192v128h-192v-128zM960 64h-832v640h832v-640zM896 640h-704v-512h704v512z" />
    <glyph glyph-name="uniF157" unicode="&#xf157;" 
d="M896 128.215c0 -106.303 -86.0576 -192.215 -192.215 -192.215h-511.57c-106.303 0 -192.215 86.0576 -192.215 192.215v511.57c0 106.303 86.0576 192.215 192.215 192.215h511.57c30.3379 0 59.0146 -7.00879 84.5078 -19.4941l-57.1553 -47.4219
c-8.81152 1.91016 -17.9629 2.91602 -27.3525 2.91602h-511.57c-70.8691 0 -128.215 -57.3164 -128.215 -128.215v-511.57c0 -70.8691 57.3164 -128.215 128.215 -128.215h511.57c70.8691 0 128.215 57.3164 128.215 128.215v359.42l64 48.0869v-407.507zM982.934 894.192
h41.0664v-39.5127l-608.838 -717.681l-244.219 201.906l71.6504 75.4688l172.568 -169.827z" />
    <glyph glyph-name="uniF158" unicode="&#xf158;" 
d="M128 -64v64h832v-64h-832zM366.375 765.394v-380.825c0 -50 9.375 -91.5615 28.125 -124.688c27.8125 -50 81.0869 -75 147.025 -75c79.0625 0 126.412 27.0312 154.85 81.0938c15.3125 29.376 22.9688 68.9062 22.9688 118.594v380.825h94.6875v-341.919
c0 -84.6875 -11.4062 -149.843 -34.2188 -195.469c-41.875 -83.125 -120.937 -124.688 -237.188 -124.688s-195.156 41.5625 -236.719 124.688c-22.8125 45.626 -34.2188 110.781 -34.2188 195.469v341.919h94.6875z" />
    <glyph glyph-name="uniF1D7" unicode="&#xf1d7;" 
d="M84.1143 76.7998c4.83789 -2.2002 11.1875 -3.41309 17.8145 -3.41309h820.143c6.67969 0 13.0625 1.21191 18.9082 3.41309l-300.171 310.154l-129.49 -105.354l-128.559 104.907zM52.1094 111.877l293.811 304.691l-293.784 239.735
c-0.614258 -2.94238 -0.935547 -5.98145 -0.935547 -9.08887v-526.43c0 -3.04199 0.3125 -6.02051 0.90918 -8.9082zM101.929 694.613c-6.64453 0 -12.9951 -1.19922 -17.8145 -3.41309l427.204 -341.334l426.879 342.264c-5.07617 1.60938 -10.501 2.4834 -16.126 2.4834
h-820.143zM972.8 647.215c0 3.10352 -0.325195 6.13965 -0.946289 9.08203l-294.157 -239.33l294.203 -305.1c0.59082 2.88867 0.900391 5.87012 0.900391 8.91797v526.43zM0 120.785v526.43c0 52.4922 45.6348 95.1855 101.929 95.1855h820.143
c55.9404 0 101.929 -42.6162 101.929 -95.1855v-526.43c0 -52.4922 -45.6348 -95.1855 -101.929 -95.1855h-820.143c-55.9404 0 -101.929 42.6162 -101.929 95.1855z" />
    <glyph glyph-name="uniF159" unicode="&#xf159;" 
d="M1024 192c0 -70.4004 -57.5996 -128 -128 -128h-768c-70.4004 0 -128 57.5996 -128 128v448c0 70.4004 57.5996 128 128 128h768c70.4004 0 128 -57.5996 128 -128v-448zM64 128v544l286.533 -225.467l-286.533 -286.533v-32h32l290.35 290.35l124.988 -98.3496
l125.893 98.7695l290.77 -290.77h32v32l-286.906 286.906l286.906 225.094v32v-576h-896zM925.231 704h-829.231l415.338 -320z" />
    <glyph glyph-name="uniF15A" unicode="&#xf15a;" 
d="M512 -128c-69.334 0 -135.583 13.583 -198.75 40.75s-117.583 63.583 -163.25 109.25s-82.083 100.083 -109.25 163.25s-40.75 129.416 -40.75 198.75s13.583 135.583 40.75 198.75s63.583 117.583 109.25 163.25s100.083 82.083 163.25 109.25
s129.416 40.75 198.75 40.75s135.583 -13.583 198.75 -40.75s117.583 -63.583 163.25 -109.25s82.083 -100.083 109.25 -163.25s40.75 -129.416 40.75 -198.75s-13.583 -135.583 -40.75 -198.75s-63.583 -117.583 -109.25 -163.25s-100.083 -82.083 -163.25 -109.25
s-129.416 -40.75 -198.75 -40.75zM512 797c-56 0 -109.5 -10.917 -160.5 -32.75s-94.916 -51.166 -131.75 -88s-66.167 -80.75 -88 -131.75s-32.75 -104.5 -32.75 -160.5s10.917 -109.5 32.75 -160.5s51.166 -94.916 88 -131.75s80.75 -66.167 131.75 -88
s104.5 -32.75 160.5 -32.75s109.5 10.917 160.5 32.75s94.916 51.166 131.75 88s66.167 80.75 88 131.75s32.75 104.5 32.75 160.5s-10.917 109.5 -32.75 160.5s-51.166 94.916 -88 131.75s-80.75 66.167 -131.75 88s-104.5 32.75 -160.5 32.75zM576 640v-320h-128v320h128z
M576 256v-128h-128v128h128z" />
    <glyph glyph-name="uniF15B" unicode="&#xf15b;" 
d="M535.6 256l-215.6 206.529l50.4004 48.1309l173.149 -159.46l178.182 160.8l46.2686 -49.4707l-211.4 -206.529h-21z" />
    <glyph glyph-name="uniF1B9" unicode="&#xf1b9;" 
d="M128 640v128h768v-128h-768zM510.72 -64l-286.72 288l64 64l160 -160v384h128v-384l160 160l64 -64z" />
    <glyph glyph-name="uniF1B8" unicode="&#xf1b8;" 
d="M64 832h896v-512h-64l-64 64v320h-640v-320l-64 -64h-64v512zM510.72 -64l-286.72 288l64 64l160 -160v384h128v-384l160 160l64 -64z" />
    <glyph glyph-name="uniF15C" unicode="&#xf15c;" 
d="M0 768.38c0 70.3711 57.1377 127.62 127.62 127.62h768.76c70.3711 0 127.62 -57.1377 127.62 -127.62v-768.76c0 -70.3711 -57.1377 -127.62 -127.62 -127.62h-768.76c-70.3711 0 -127.62 57.1377 -127.62 127.62v768.76zM896.38 832h-768.76
c-35.0898 0 -63.6201 -28.5479 -63.6201 -63.6201v-768.76c0 -35.0898 28.5479 -63.6201 63.6201 -63.6201h768.76c35.0898 0 63.6201 28.5479 63.6201 63.6201v768.76c0 35.0898 -28.5479 63.6201 -63.6201 63.6201zM992 279.6l-258.161 -215.6l-60.1641 50.4004
l199.325 173.149l-201 178.181l61.8389 46.2695l258.161 -211.4v-21zM32 471.6v21l258.161 211.4l61.8389 -46.2695l-201 -178.181l199.325 -173.149l-60.1641 -50.4004zM576.955 768h62.0898l-191.045 -768h-64z" />
    <glyph glyph-name="uniF15D" unicode="&#xf15d;" 
d="M0 768.38c0 70.3711 57.1377 127.62 127.62 127.62h768.76c70.3711 0 127.62 -57.1377 127.62 -127.62v-768.76c0 -70.3711 -57.1377 -127.62 -127.62 -127.62h-768.76c-70.3711 0 -127.62 57.1377 -127.62 127.62v768.76zM896.38 832h-768.76
c-35.0898 0 -63.6201 -28.5479 -63.6201 -63.6201v-768.76c0 -35.0898 28.5479 -63.6201 63.6201 -63.6201h768.76c35.0898 0 63.6201 28.5479 63.6201 63.6201v768.76c0 35.0898 -28.5479 63.6201 -63.6201 63.6201zM1024 320h-448v320h448v-64h-384v-192h384v-64v0z
M64 512v64h384v-64h-384zM64 320v64h320v-64h-320zM64 128v64h768v-64h-768zM797.312 480l-125.312 -96h-32v64l157.312 103.415l162.688 -103.415v-64h-32z" />
    <glyph glyph-name="uniF1D2" unicode="&#xf1d2;" 
d="M337.231 832v0c-10.9561 -18.9082 -17.2314 -40.873 -17.2314 -64.2949v-512.373c0 -105.91 86.1182 -191.939 192 -191.939c105.893 0 192 86.1201 192 191.74v448.181h64v-448.181c0 -140.964 -114.76 -255.74 -256 -255.74c-141.213 0 -256 114.668 -256 255.939
v512.373c0 22.543 3.87988 44.1865 11.0068 64.2949h-139.387c-35.0898 0 -63.6201 -28.5479 -63.6201 -63.6201v-768.76c0 -35.0898 28.5479 -63.6201 63.6201 -63.6201h768.76c35.0898 0 63.6201 28.5479 63.6201 63.6201v768.76
c0 35.0898 -28.5479 63.6201 -63.6201 63.6201h-267.282c7.06348 -20.0684 10.9023 -41.6777 10.9023 -64.2061v-512.68c0 -70.1465 -57.5098 -127.801 -128 -127.801c-70.9902 0 -128 57.4512 -128 128.484v319.516h64v-319.516c0 -35.7969 28.4668 -64.4844 64 -64.4844
c35.1084 0 64 28.9648 64 63.8008v512.68c0 23.4297 -6.19141 45.3486 -17.04 64.2061v0h-221.729zM0 768.38v0c0 70.3711 57.1377 127.62 127.62 127.62h768.76c70.3711 0 127.62 -57.1377 127.62 -127.62v-768.76c0 -70.3711 -57.1377 -127.62 -127.62 -127.62h-768.76
c-70.3711 0 -127.62 57.1377 -127.62 127.62v768.76z" />
    <glyph glyph-name="uniF1BA" unicode="&#xf1ba;" 
d="M127.616 896h768.768c70.4004 0 127.616 -57.1523 127.616 -127.616v-768.832c0 -70.3359 -57.1523 -127.616 -127.616 -127.616h-768.768c-70.4004 0 -127.616 57.1523 -127.616 127.616v768.832c0 70.3359 57.1523 127.616 127.616 127.616zM896.384 832h-768.768
c-35.0723 0 -63.6162 -28.5439 -63.6162 -63.6162v-539.968c64.1279 72.832 206.912 234.496 256 283.584c73.4717 -73.4717 188.992 -252.16 274.176 -391.296c43.7119 58.2402 154.561 199.231 205.824 199.231c44.2236 0 117.952 -105.023 160 -171.264v619.712
c0 35.1357 -28.5439 63.6162 -63.6162 63.6162zM127.616 -64.0645v0h512.384c-42.1758 70.9121 -224 352 -320 480.064c-49.0879 -49.0879 -191.872 -210.752 -256 -283.584v-132.864c0 -35.0713 28.5439 -63.6162 63.6162 -63.6162zM960 -0.448242v0v32.3838
s-127.36 224 -160 224s-176.256 -183.871 -176.256 -183.871c47.6797 -79.1045 80.2559 -136.129 80.2559 -136.129h192.384c35.1357 0 63.6162 28.6729 63.6162 63.6162zM672 464l-97.1895 -89.8174l9.62402 131.986l-130.818 19.9863l109.191 74.7666l-65.9375 114.74
l126.535 -38.7539l48.5947 123.092l48.5947 -123.092l126.535 38.7539l-65.9385 -114.74l109.192 -74.7666l-130.818 -19.9863l9.62402 -131.986zM588.8 576c0 -45.9502 37.25 -83.2002 83.2002 -83.2002s83.2002 37.25 83.2002 83.2002s-37.25 83.2002 -83.2002 83.2002
s-83.2002 -37.25 -83.2002 -83.2002z" />
    <glyph glyph-name="uniF15E" unicode="&#xf15e;" 
d="M754.56 829.44v0h-485.119c-78.0166 0 -141.44 -63.4248 -141.44 -141.44v-613.12c0 -78.0156 63.4238 -141.439 141.44 -141.439h485.119c78.0166 0 141.44 63.4238 141.44 141.439v613.12c0 78.0156 -63.4238 141.44 -141.44 141.44zM754.56 893.44v0v0
c113.28 0 205.44 -92.0967 205.44 -205.44v-613.12c0 -113.344 -92.1602 -205.44 -205.44 -205.44h-485.119c-113.28 0 -205.44 92.0967 -205.44 205.44v613.12c0 113.344 92.1602 205.44 205.44 205.44h485.119zM529.28 446.656v0l-19.8398 14.7197
c-6.40039 206.144 135.68 220.8 135.68 220.8c-65.9199 -124.16 -88.96 -127.359 -41.6006 -208c50.5605 -87.04 -135.68 -156.8 -135.68 -156.8s104.32 68.5439 61.4404 129.28zM520.32 838.464c0 0 -10.8799 -179.264 -63.3604 -336
c-17.2803 -52.4795 -14.7197 -89.5996 -10.8799 -186.88c-46.7197 89.5361 -100.48 196.416 -58.2402 273.28c61.4404 112.576 132.48 249.6 132.48 249.6v0zM738.133 445.281c2.11523 0.131836 2.11523 0.131836 4.26758 0.15918c0 0 0.255859 -63.9971 0.476562 -63.9834
c-1.39258 -0.103516 -40.9775 -25.1055 -50.3223 -30.0596c-85.8076 -45.4961 -205.58 -53.3584 -402.507 -5.5332l15.1045 62.1914c182.78 -44.3887 286.797 -37.5615 357.422 -0.114258c6.08789 3.22754 11.8887 6.63672 18.4277 10.7559
c3.20898 2.02148 14.1328 9.09961 16.3828 10.5215c16.0312 10.125 26.7607 15.0225 40.748 16.0625zM303.479 2.03418l-90.2393 54.4004l33.042 54.8105l90.2402 -54.3994l-16.5215 4.59473h384l-13.7695 -3.11426l123.52 58.8799l27.5391 -57.7725l-123.52 -58.8799
l-13.7695 -3.11328h-384h-8.89941zM680.854 198.497c-140.437 -99.1318 -241.716 -110.58 -353.634 -8.36523l43.1602 47.2568c85.5859 -78.165 154.966 -70.3232 273.566 13.3945z" />
    <glyph glyph-name="uniF15F" unicode="&#xf15f;" 
d="M0 768.38c0 70.3711 57.1377 127.62 127.62 127.62h768.76c70.3711 0 127.62 -57.1377 127.62 -127.62v-768.76c0 -70.3711 -57.1377 -127.62 -127.62 -127.62h-768.76c-70.3711 0 -127.62 57.1377 -127.62 127.62v768.76zM896.38 832h-768.76
c-35.0898 0 -63.6201 -28.5479 -63.6201 -63.6201v-768.76c0 -35.0898 28.5479 -63.6201 63.6201 -63.6201h768.76c35.0898 0 63.6201 28.5479 63.6201 63.6201v768.76c0 35.0898 -28.5479 63.6201 -63.6201 63.6201zM768 448h-64v64h128v-576.024h-64v512.024z
M100.713 451.747c-16.0986 -1.93945 -27.6973 -3.10645 -34.0557 -3.63672l-5.31445 63.7793c5.60059 0.466797 16.4229 1.55566 31.7168 3.39746c25.6631 3.0918 54.3027 7.19531 85.1641 12.4395c88.1025 14.9717 176.161 36.0371 258.062 64.1406
c85.3174 29.2754 158.881 64.5762 217.115 106.172l50.5996 37.9609v-800.695h-64c0 28.4834 0 679.096 -0.0136719 677.915c-53.4072 -31.3672 -114.854 -58.5293 -182.929 -81.8887c-85.5176 -29.3438 -176.837 -51.1885 -268.111 -66.6992
c-31.9209 -5.4248 -61.5791 -9.6748 -88.2334 -12.8848zM512 64l-320 -64v64l320 64v-64zM512 256l-320 -64v64l320 64v-64z" />
    <glyph glyph-name="uniF160" unicode="&#xf160;" 
d="M960 128v128v0h-256v64h256v128h-192v64h192v0v256.38c0 35.0898 -28.5479 63.6201 -63.6201 63.6201h-768.76c-35.0898 0 -63.6201 -28.5479 -63.6201 -63.6201v-768.76c0 -35.0898 28.5479 -63.6201 63.6201 -63.6201h768.76
c35.0898 0 63.6201 28.5479 63.6201 63.6201v64.3799h-768v64h768v0zM0 768.38v0c0 70.3711 57.1377 127.62 127.62 127.62h768.76c70.3711 0 127.62 -57.1377 127.62 -127.62v-768.76c0 -70.3711 -57.1377 -127.62 -127.62 -127.62h-768.76
c-70.3711 0 -127.62 57.1377 -127.62 127.62v768.76zM416 704v0c123.712 0 224 -100.288 224 -224c0 -123.648 -100.288 -224.064 -224 -224.064s-224 100.416 -224 224.064c0 123.712 100.288 224 224 224zM576 480v0c0 77.376 -54.9756 141.952 -128 156.8v-143.552
l101.376 -101.44c16.7676 25.2803 26.624 55.6162 26.624 88.1924zM384 636.8v0c-73.0244 -14.8477 -128 -79.4238 -128 -156.8c0 -18.8799 3.83984 -36.6719 9.85645 -53.5039l118.144 67.5195v142.784zM298.88 371.648v0
c29.248 -31.5527 70.6562 -51.7129 117.12 -51.7129c32.5762 0 62.8477 9.9209 88.1279 26.624l-90.5596 90.5605z" />
    <glyph glyph-name="uniF161" unicode="&#xf161;" 
d="M896.384 896v0c70.4004 0 127.616 -57.1523 127.616 -127.616v-768.832c0 -70.3359 -57.1523 -127.616 -127.616 -127.616h-768.768c-70.4004 0 -127.616 57.1523 -127.616 127.616v768.832c0 70.3359 57.1523 127.616 127.616 127.616h768.768zM960 -0.448242v0v768.832
c0 35.1357 -28.5439 63.6162 -63.6162 63.6162h-768.768c-35.0723 0 -63.6162 -28.5439 -63.6162 -63.6162v-192.384h640v-64h-640v-128h704v-64.0645h-704v-128h512v-64h-512v-128.384c0 -35.0713 28.5439 -63.6162 63.6162 -63.6162h768.768
c35.1357 0 63.6162 28.6729 63.6162 63.6162z" />
    <glyph glyph-name="uniF1D5" unicode="&#xf1d5;" 
d="M896.384 896v0c70.4004 0 127.616 -57.1523 127.616 -127.616v-768.832c0 -70.3359 -57.1523 -127.616 -127.616 -127.616h-768.768c-70.4004 0 -127.616 57.1523 -127.616 127.616v768.832c0 70.3359 57.1523 127.616 127.616 127.616h768.768zM658.745 640h-229.49v0
l-13.2549 -13.2549l-13.2549 13.2549h-229.49l-13.2549 -13.2549l-13.2549 13.2549v0h-82.7451v-640.448c0 -35.0078 28.5439 -63.6162 63.6162 -63.6162h768.768c35.0723 0 63.6162 28.6084 63.6162 63.6162v640.448v0h-274.745l-13.2549 -13.2549l-13.2549 13.2549v0v0z
M786.745 832h-165.49v0l-19.459 -19.459l-108.541 -108.541h165.49l128 128v0v0zM877.255 832v0v0l-19.459 -19.459l-108.541 -108.541h210.745v64.3838c0 35.0723 -28.5439 63.6162 -63.6162 63.6162h-19.1289zM530.745 832h-165.49v0l-19.459 -19.459l-108.541 -108.541
h165.49l128 128v0v0zM274.745 832h-147.129c-35.0723 0 -63.6162 -28.5439 -63.6162 -63.6162v-64.3838h82.7451l128 128v0v0zM384 32v0v512l352 -256zM640 288v0l-192 128v-256z" />
    <glyph glyph-name="uniF162" unicode="&#xf162;" 
d="M0 768.38c0 70.3711 57.1377 127.62 127.62 127.62h768.76c70.3711 0 127.62 -57.1377 127.62 -127.62v-768.76c0 -70.3711 -57.1377 -127.62 -127.62 -127.62h-768.76c-70.3711 0 -127.62 57.1377 -127.62 127.62v768.76zM896.38 832h-768.76
c-35.0898 0 -63.6201 -28.5479 -63.6201 -63.6201v-768.76c0 -35.0898 28.5479 -63.6201 63.6201 -63.6201h768.76c35.0898 0 63.6201 28.5479 63.6201 63.6201v768.76c0 35.0898 -28.5479 63.6201 -63.6201 63.6201zM512.896 159.92
c0 -95.9199 -96.8965 -140.72 -160.896 -140.72c-70.6924 0 -140.8 70.1074 -140.8 140.8s70.1074 140.8 140.8 140.8c53.4912 0 96.8965 -38.3994 96.8965 -76.7998v511.92c0 35.2646 31.1035 32 31.1035 32s32.8965 3.00879 32.8965 -32c320 0 351.104 -160 319.104 -384
c-64 160 -173.632 192 -319.104 192v-384zM512 607.92c96 -0.197266 197.191 -14.4375 268.8 -76.7998c-44.7998 140.8 -137.6 140.8 -268.8 140.8c0 0 0 -64.1973 0 -64v0v0zM435.2 160c0 29.6152 -34.3848 76.7998 -83.2002 76.7998
c-42.415 0 -76.7998 -34.3848 -76.7998 -76.7998s34.3848 -76.7998 76.7998 -76.7998s83.2002 21.584 83.2002 76.7998z" />
    <glyph glyph-name="uniF163" unicode="&#xf163;" 
d="M127.616 896h768.768c70.4004 0 127.616 -57.1523 127.616 -127.616v-768.768c0 -70.4004 -57.1523 -127.616 -127.616 -127.616h-768.768c-70.4004 0 -127.616 57.0879 -127.616 127.616v768.768c0 70.3359 57.1523 127.616 127.616 127.616zM64 768.384v-256.384h256
v320h-192.384c-35.0723 0 -63.6162 -28.5439 -63.6162 -63.6162zM384 256v-128h256v128h-256zM384 448v-128h256v128h-256zM127.616 -64h192.384v512h-256v-448.384c0 -35.1357 28.5439 -63.6162 63.6162 -63.6162zM384 64v-128h256v128h-256zM960 -0.383789v64.3838h-256
v-128h192.384c35.0723 0 63.6162 28.5439 63.6162 63.6162zM704 256v-128h256v128h-256zM704 448v-128h256v128h-256zM384 832v-320h576v256.384c0 35.1357 -28.5439 63.6162 -63.6162 63.6162h-512.384z" />
    <glyph glyph-name="uniF164" unicode="&#xf164;" 
d="M0 768.38c0 70.3711 57.1377 127.62 127.62 127.62h768.76c70.3711 0 127.62 -57.1377 127.62 -127.62v-768.76c0 -70.3711 -57.1377 -127.62 -127.62 -127.62h-768.76c-70.3711 0 -127.62 57.1377 -127.62 127.62v768.76zM896.38 832h-768.76
c-35.0898 0 -63.6201 -28.5479 -63.6201 -63.6201v-768.76c0 -35.0898 28.5479 -63.6201 63.6201 -63.6201h768.76c35.0898 0 63.6201 28.5479 63.6201 63.6201v768.76c0 35.0898 -28.5479 63.6201 -63.6201 63.6201zM384 160v96h128v-64h128v-256h-256v224v0zM512 832v0
h128v-64h-128v64zM384 768v0h128v-64h-128v64zM512 704v0h128v-64h-128v64zM384 640v0h128v-64h-128v64zM512 576v0h128v-64h-128v64zM384 512v0h128v-64h-128v64zM384 384v0h128v-64h-128v64zM512 448v0h128v-64h-128v64zM512 320v0h128v-64h-128v64zM448 64v-64h128v64
h-128v0z" />
    <glyph glyph-name="uniF165" unicode="&#xf165;" 
d="M64 691.21l44.7998 76.79l466.431 -757.019l-56.8301 -74.9814zM190.73 765.689c0 0 308.398 -140.739 373.271 -116.891c78.999 29.0605 140.528 149.541 330.399 181.201c-34.3818 -131.84 41.5996 -155.34 62.2188 -247.74
c-137.138 -48.2598 -176.909 -54.3496 -230.449 -152.67c-74.1699 -201.59 -230.551 -185.09 -230.551 -185.09l-304.889 521.189v0z" />
    <glyph glyph-name="uniF166" unicode="&#xf166;" 
d="M166.4 384v-288l249.6 256l64 -64l-256 -249.6h288v-102.4h-448v448h102.4zM857.6 384v288l-249.6 -256l-64 64l256 249.6h-288v102.4h448v-448h-102.4z" />
    <glyph glyph-name="uniF167" unicode="&#xf167;" 
d="M320.585 64v-61.376h-255.36c-23.6797 0 -35.2002 18.5596 -48.6396 38.4004c-19.8408 28.1592 -21.7607 78.7197 -6.40039 124.159c1.91992 7.04004 53.1201 207.36 144.64 285.376c-32 34.624 -58.2393 108.097 -58.2393 157.44c0 102.976 88.3193 192 189.439 192
s193.976 -89.0244 193.976 -192c0 -53.1201 -49.3359 -122.24 -86.4551 -157.44c3.19922 -2.55957 51.8955 -31.3594 54.4551 -34.5596c-11.5195 -16.5762 -22.4004 -46.7197 -32 -64c-12.7998 14.0156 -55.0957 64.0645 -69.8154 73.5996l-39.6797 26.8809l39.6797 27.584
c38.4004 22.3994 69.8154 81.8555 69.8154 127.936c0 70.4639 -60.8555 128 -129.976 128c-68.4795 0 -131.2 -57.5361 -131.2 -128c0 -42.8799 26.2402 -104.256 61.4404 -127.936l40.3203 -26.8809l-40.3203 -25.5352c-94.0801 -56.3848 -150.4 -284.864 -151.04 -286.145
c-9.60059 -30.1436 -7.67969 -57.6641 -0.639648 -67.2002c2.55957 -3.2002 26.8799 -10.3037 32 -10.3037h224zM830.984 401.92c182.399 -190.026 193.016 -398.637 193.016 -401.92c0 -128.422 -96.3037 -127.992 -193.016 -128h-254.984
c-97.6797 0 -192 1.92285 -192 128c0 3.36914 0.858398 221.576 191.898 408.319c57.7012 52.4805 95.3545 52.4805 128.102 52.4805s76.7998 -6.39941 126.984 -58.8799zM704 896c105.809 0 192 -88.9619 192 -193.707s-84.4805 -190.293 -192 -190.293
c-107.44 0 -192 85.5479 -192 190.293s86.1914 193.707 192 193.707z" />
    <glyph glyph-name="uniF168" unicode="&#xf168;" 
d="M496 640c-26.5098 0 -48 21.4902 -48 48s21.4902 48 48 48s48 -21.4902 48 -48s-21.4902 -48 -48 -48zM496 320c-26.5098 0 -48 21.4902 -48 48s21.4902 48 48 48s48 -21.4902 48 -48s-21.4902 -48 -48 -48zM496 0c-26.5098 0 -48 21.4902 -48 48s21.4902 48 48 48
s48 -21.4902 48 -48s-21.4902 -48 -48 -48z" />
    <glyph glyph-name="uniF169" unicode="&#xf169;" 
d="M512 -128c-55.334 0 -109.083 8.66699 -161.25 26s-99.25 41.833 -141.25 73.5s-78.75 68.583 -110.25 110.75s-55.917 89.333 -73.25 141.5s-26 105.916 -26 161.25c0 69 13.583 135 40.75 198s63.583 117.333 109.25 163s100.083 82.083 163.25 109.25
s129.416 40.75 198.75 40.75s135.583 -13.583 198.75 -40.75s117.583 -63.583 163.25 -109.25s82.083 -100 109.25 -163s40.75 -129 40.75 -198c0 -55.334 -8.66699 -109.083 -26 -161.25s-41.75 -99.333 -73.25 -141.5s-68.25 -79.083 -110.25 -110.75
s-89.083 -56.167 -141.25 -73.5s-105.916 -26 -161.25 -26zM512 796c-56 0 -109.5 -10.833 -160.5 -32.5s-94.916 -50.833 -131.75 -87.5s-66.167 -80.416 -88 -131.25s-32.75 -104.083 -32.75 -159.75c0 -56 10.917 -109.5 32.75 -160.5s51.166 -94.916 88 -131.75
s80.75 -66.167 131.75 -88s104.5 -32.75 160.5 -32.75s109.5 10.917 160.5 32.75s94.916 51.166 131.75 88s66.167 80.75 88 131.75s32.75 104.5 32.75 160.5c0 55.667 -10.917 108.916 -32.75 159.75s-51.166 94.583 -88 131.25s-80.75 65.833 -131.75 87.5
s-104.5 32.5 -160.5 32.5zM410 530h-2c-2.66699 -11 -8.5 -20.083 -17.5 -27.25s-19.167 -10.75 -30.5 -10.75c-13.333 0 -24.833 4.91699 -34.5 14.75s-14.5 21.583 -14.5 35.25c0 4.66699 0.333008 8 1 10c5 42 24 77 57 105c36 32 83.333 48 142 48
c62.334 0 111.333 -16.333 147 -49c36.667 -30.667 55 -67.666 55 -111c0 -23 -6.66699 -45.333 -20 -67c-12.667 -20.333 -41.333 -49.333 -86 -87c-23.667 -19.333 -37.667 -34.333 -42 -45c-3 -7 -5 -16.667 -6 -29c-1.33301 -12 -2 -23.667 -2 -35
c0 -8.66699 -2.08301 -15.083 -6.25 -19.25s-8.91699 -6.66699 -14.25 -7.5s-13.5 -1.25 -24.5 -1.25h-8h-8.75c-1.5 0 -4.25 0.166992 -8.25 0.5s-6.75 0.916992 -8.25 1.75s-3.66699 2 -6.5 3.5s-4.83301 3.25 -6 5.25s-2.33301 4.66699 -3.5 8s-1.75 7 -1.75 11l-1 6v23
c0 29 5 54 15 75c11 20 32 43 63 69c31.334 25.333 50 42 56 50c9.33301 11.333 14 25 14 41c0 21.333 -8.33301 39.333 -25 54s-39 22 -67 22c-26.667 0 -49.667 -7.66699 -69 -23c-17.333 -15.667 -29.667 -39.333 -37 -71zM512 207c20 0 37.167 -7 51.5 -21
s21.5 -31 21.5 -51c0 -19.667 -7.16699 -36.75 -21.5 -51.25s-31.5 -21.75 -51.5 -21.75s-37.167 7.25 -51.5 21.75s-21.5 31.583 -21.5 51.25c0 20 7.16699 37 21.5 51s31.5 21 51.5 21z" />
    <glyph glyph-name="uniF16A" unicode="&#xf16a;" 
d="M793.925 318.703c-0.0126953 11.4434 -8.72949 21.7373 -20.4492 21.7373c-4.73242 0 -9.57129 -1.71582 -13.543 -5.5127c-51.7305 -49.5039 -139.764 -93.2832 -246.234 -93.5693h-0.430664c-106.29 0.286133 -191.8 45.8135 -246.241 93.5557
c-3.44629 3.01953 -9.82715 5.08691 -13.9609 5.08691c-12.6504 0 -20.0059 -11.4629 -20.0176 -24.0703c-0.00683594 -9.72852 6.39355 -17.8535 11.6631 -26.2783c30.5205 -48.7998 125.19 -131.657 267.657 -131.657h2.22949c142.461 0 237.131 82.8574 267.657 131.657
c5.26953 8.4248 11.6758 19.3232 11.6699 29.0508zM935.574 -61.626c8.78516 -5.33301 14.7539 -14.4297 14.7539 -26.1592c0 -18.1855 -11.3701 -38.1533 -40.9346 -38.1533c-91.7734 0 -196.421 38.5127 -266.696 84.4395
c-5.68848 3.71777 -12.6377 5.8584 -21.1855 4.17578c-34.8281 -6.85547 -70.9561 -10.4658 -108.007 -10.4658c-283.599 0 -513.505 211.243 -513.505 471.904c0 260.528 229.906 471.738 513.505 471.738c283.566 0 513.461 -211.21 513.461 -471.738
c0 -139.696 -66.0293 -265.123 -170.964 -351.524c-7.2373 -5.95117 -9.98438 -14.0303 -6.89355 -24.0244c15.7725 -50.9863 50.1943 -88.1963 86.4658 -110.192zM798.151 -15.7725c-25.5371 36.1064 -45.0371 90.8838 -45.0371 112.979
c0 10.7588 7.48633 19.3623 14.5107 23.9443c105.104 68.4619 173.25 178.309 173.25 302.187c0 207.499 -191.351 375.715 -427.377 375.715c-236.044 0 -427.407 -168.216 -427.407 -375.715c0 -207.606 191.363 -375.854 427.407 -375.854
c37.6826 0 74.1904 4.35449 108.994 12.4209c11.3447 2.63281 19.3369 0.750977 25.0508 -4.37598c41.7217 -37.4824 120.981 -82.9697 146.706 -82.9697c3.54688 0 6.36914 2.18066 6.36914 5.3457c0 2.10742 -0.855469 4.04297 -2.4668 6.32324z" />
    <glyph glyph-name="uniF16B" unicode="&#xf16b;" 
d="M384 256l-64 1.6875v55.9121l224 192l224 -192v-55.9121l-64 -1.6875v-128h-128v128h-64v-128h-128v128zM704 768v-128h128zM896 576h-256v256h-320c-70.5918 0 -128 -57.4082 -128 -128v-640c0 -70.5918 57.4082 -128 128 -128h448c70.5918 0 128 57.4082 128 128v512z
M320 896h352l288 -288v-544c0 -106.24 -85.7598 -192 -192 -192h-448c-106.24 0 -192 85.7598 -192 192v640c0 106.24 85.7598 192 192 192z" />
    <glyph glyph-name="uniF16D" unicode="&#xf16d;" 
d="M524.805 488.615c0 32 16 48 48 48s48 -16 48 -48s-16 -48 -48 -48s-48 16 -48 48zM704 321.374v190.247c0 17.9088 -6.2063 33.1157 -18.6189 45.621c-12.4127 12.5053 -27.4993 18.7579 -45.26 18.7579h-256.242c-17.7933 0 -32.8881 -6.23163 -45.2844 -18.6949
c-12.3963 -12.4633 -18.5945 -27.6912 -18.5945 -45.684v-111.406c17.727 20.3824 41.5772 41.7264 71.5508 64.0322c26.5577 -29.7311 62.7846 -86.7728 108.681 -171.125c61.9859 44.4305 105.503 78.4978 130.551 102.202
c6.6084 -7.40268 18.5568 -19.5512 35.8451 -36.4457c17.2883 -16.8945 29.7459 -29.396 37.3727 -37.5045zM256 511.621c0 35.7349 12.4637 66.0652 37.391 90.9907s55.09 37.3882 90.4879 37.3882h256.242c35.5068 0 65.6967 -12.5192 90.5696 -37.5576
s37.3093 -55.3121 37.3093 -90.8213v-191.242c0 -35.7349 -12.4637 -66.0651 -37.391 -90.9906c-24.9274 -24.9255 -55.09 -37.3883 -90.4879 -37.3883h-256.242c-35.5069 0 -65.6967 12.5192 -90.5696 37.5576c-24.8729 25.0384 -37.3093 55.3122 -37.3093 90.8213v191.242
z" />
    <glyph glyph-name="uniF16E" unicode="&#xf16e;" 
d="M560 482.462c0 49.2305 24 73.8457 72 73.8457s72 -24.6152 72 -73.8457c0 -49.2311 -24 -73.8467 -72 -73.8467s-72 24.6156 -72 73.8467zM128 140.772v0v422.455c0 39.0851 12.5356 72.3185 37.6067 99.7001c25.0711 27.3816 55.3842 41.0724 90.9392 41.0724h510.908
c35.4305 0 65.7125 -13.7492 90.8458 -41.2477s37.7001 -60.6734 37.7001 -99.5248v-422.455c0 -39.0851 -12.5356 -72.3185 -37.6067 -99.7001c-25.0711 -27.3816 -55.3842 -41.0724 -90.9392 -41.0724h-510.908c-35.4305 0 -65.7124 13.7492 -90.8458 41.2477
c-25.1334 27.4985 -37.7001 60.6734 -37.7001 99.5247zM832 576.024c0 17.6097 -6.30914 32.6747 -18.9274 45.1951s-27.8245 18.7805 -45.6185 18.7805h-510.908c-17.9562 0 -33.2029 -6.21649 -45.7401 -18.6495s-18.8058 -27.5417 -18.8058 -45.3261v-254.604
c29.5018 42.7467 75.9438 86.5811 139.326 131.503c21.9447 -23.3976 46.5021 -55.4683 73.6722 -96.2119c27.1701 -40.7443 48.854 -75.6389 65.0517 -104.684l24.2966 -43.568c95.3738 65.6306 160.649 114.298 195.827 146.003
c8.48297 -9.05069 30.5675 -30.28 66.2535 -63.6879c35.686 -33.4079 60.8769 -59.0809 75.5726 -77.0191v362.269z" />
    <glyph glyph-name="uniF16C" unicode="&#xf16c;" 
d="M960 576.078c0 70.8711 -57.1133 127.922 -128.606 127.922h-638.787c-71.0869 0 -128.606 -57.3105 -128.606 -127.922v-338.604c64 50.5264 96 107.87 192 210.526c96 -102.656 267.901 -385.918 267.901 -385.918s340.099 26.584 429.931 26.584
c4.00488 12.3711 6.16797 25.5635 6.16797 39.2559v448.156zM192.606 -64c-107.062 0 -192.606 85.9268 -192.606 191.922v448.156c0 106.017 86.2324 191.922 192.606 191.922h638.787c107.062 0 192.606 -85.9268 192.606 -191.922v-448.156
c0 -106.017 -86.2324 -191.922 -192.606 -191.922h-638.787zM576 480c0 64 32 96 96 96s96 -32 96 -96s-32 -96 -96 -96s-96 32 -96 96zM749.564 313.602c56.5518 -58.8262 162.932 -141.503 208.455 -208.169c-1.02148 -5.72949 -2.42676 -11.3271 -4.1875 -16.7666
c-89.832 0 -429.931 -26.584 -429.931 -26.584s-14.5146 23.916 -37.4639 60.3691c35.4521 23.5625 191.345 128.072 263.127 191.15z" />
    <glyph glyph-name="uniF16F" unicode="&#xf16f;" 
d="M512 -128c-69.334 0 -135.583 13.583 -198.75 40.75s-117.583 63.583 -163.25 109.25s-82.083 100.083 -109.25 163.25s-40.75 129.416 -40.75 198.75s13.583 135.583 40.75 198.75s63.583 117.583 109.25 163.25s100.083 82.083 163.25 109.25
s129.416 40.75 198.75 40.75s135.583 -13.583 198.75 -40.75s117.583 -63.583 163.25 -109.25s82.083 -100.083 109.25 -163.25s40.75 -129.416 40.75 -198.75s-13.583 -135.583 -40.75 -198.75s-63.583 -117.583 -109.25 -163.25s-100.083 -82.083 -163.25 -109.25
s-129.416 -40.75 -198.75 -40.75zM512 797c-56 0 -109.5 -10.917 -160.5 -32.75s-94.916 -51.166 -131.75 -88s-66.167 -80.75 -88 -131.75s-32.75 -104.5 -32.75 -160.5s10.917 -109.5 32.75 -160.5s51.166 -94.916 88 -131.75s80.75 -66.167 131.75 -88
s104.5 -32.75 160.5 -32.75s109.5 10.917 160.5 32.75s94.916 51.166 131.75 88s66.167 80.75 88 131.75s32.75 104.5 32.75 160.5s-10.917 109.5 -32.75 160.5s-51.166 94.916 -88 131.75s-80.75 66.167 -131.75 88s-104.5 32.75 -160.5 32.75zM448 512v128h128v-128h-128z
M448 128v320h128v-320h-128z" />
    <glyph glyph-name="uniF171" unicode="&#xf171;" 
d="M128 0h768v288h128v-416h-886c-74.667 0.666992 -120.667 0.666992 -138 0v1024h704v-128h-576v-768zM938 695l78 -77c5.33301 -6.66699 8 -14.333 8 -23s-2.66699 -15.667 -8 -21l-415 -424c-17.333 -14.667 -34.667 -22 -52 -22h-37c-8.33301 0 -17.667 2.25 -28 6.75
s-18.333 9.58301 -24 15.25l-195 201c-6 5.33301 -9 12.333 -9 21s3 16.333 9 23l77 77c5.33301 6.66699 12.333 10 21 10s16.333 -3.33301 23 -10l123 -125c6.66699 -6.66699 14.333 -10 23 -10s15.667 3.33301 21 10l342 348c6 6 13.333 9 22 9s15.667 -3 21 -9z" />
    <glyph glyph-name="uniF172" unicode="&#xf172;" 
d="M319 896v-128h-191v-192h-128v320h319zM1024 896v-319h-128v191h-192v128h320zM640 576h128c17.333 0 32.333 -6.33301 45 -19s19 -27.667 19 -45v-256c0 -17.333 -6.33301 -32.333 -19 -45s-27.667 -19 -45 -19h-512c-17.333 0 -32.333 6.33301 -45 19
s-19 27.667 -19 45v256c0 17.333 6.33301 32.333 19 45s27.667 19 45 19h128c0 17.333 6.33301 32.333 19 45s27.667 19 45 19h128c17.333 0 32.333 -6.33301 45 -19s19 -27.667 19 -45zM512 256c35.334 0 65.5 12.5 90.5 37.5s37.5 55.166 37.5 90.5s-12.5 65.5 -37.5 90.5
s-55.166 37.5 -90.5 37.5s-65.5 -12.5 -90.5 -37.5s-37.5 -55.166 -37.5 -90.5s12.5 -65.5 37.5 -90.5s55.166 -37.5 90.5 -37.5zM576 384c0 -17.333 -6.33301 -32.333 -19 -45s-27.667 -19 -45 -19s-32.333 6.33301 -45 19s-19 27.667 -19 45s6.33301 32.333 19 45
s27.667 19 45 19s32.333 -6.33301 45 -19s19 -27.667 19 -45zM1024 192v-320h-319v128h191v192h128zM320 0v-128h-320v319h128v-191h192z" />
    <glyph glyph-name="uniF170" unicode="&#xf170;" 
d="M545 869c18.667 0 34.5 -6.5 47.5 -19.5s19.5 -28.833 19.5 -47.5c0 -19 -6.5 -35.083 -19.5 -48.25s-28.833 -19.75 -47.5 -19.75c-19 0 -35.083 6.58301 -48.25 19.75s-19.75 29.25 -19.75 48.25c0 18.667 6.58301 34.5 19.75 47.5s29.25 19.5 48.25 19.5zM288 804
c18.667 0 34.5 -6.5 47.5 -19.5s19.5 -28.833 19.5 -47.5s-6.5 -34.5 -19.5 -47.5s-28.833 -19.5 -47.5 -19.5s-34.5 6.5 -47.5 19.5s-19.5 28.833 -19.5 47.5s6.5 34.5 19.5 47.5s28.833 19.5 47.5 19.5zM800 803c18.667 0 34.5 -6.5 47.5 -19.5s19.5 -28.833 19.5 -47.5
s-6.5 -34.5 -19.5 -47.5s-28.833 -19.5 -47.5 -19.5s-34.5 6.5 -47.5 19.5s-19.5 28.833 -19.5 47.5s6.5 34.5 19.5 47.5s28.833 19.5 47.5 19.5zM774 -128h-128c-5 0 -9.58301 3.41699 -13.75 10.25s-6.58301 13.417 -7.25 19.75c-1.33301 19.667 -5.5 38.917 -12.5 57.75
s-14.833 35.417 -23.5 49.75s-21.083 30.75 -37.25 49.25s-30.333 33.833 -42.5 46s-29.25 28.917 -51.25 50.25s-39.667 38.667 -53 52c-29 29.334 -49.75 50.583 -62.25 63.75s-29.5 32.25 -51 57.25s-39.417 48 -53.75 69c-50 71.667 -78.333 141.666 -85 210
c-1 7.66699 1.66699 13.667 8 18c4.33301 3.33301 8.66699 5 13 5c2 0 4.33301 -0.666992 7 -2c46 -17 90.666 -30.667 134 -41c9.33301 -2 15.667 -7.33301 19 -16c5.66699 -16.333 14 -33.5 25 -51.5s21.083 -33.417 30.25 -46.25s23.583 -30.083 43.25 -51.75
s33.917 -37.083 42.75 -46.25s25.417 -26.25 49.75 -51.25c4 -5.33301 9 -8 15 -8c6.66699 0 12 2.66699 16 8c23 23.333 39.583 40.333 49.75 51s24.583 26.417 43.25 47.25s32.917 38 42.75 51.5s20.083 29.167 30.75 47s18.833 34.917 24.5 51.25
c3.66699 8.66699 10 14 19 16c49 11.667 93.333 25 133 40c4 1.33301 6.66699 2 8 2c4.33301 0 8.66699 -1.66699 13 -5c6.33301 -5 9 -11.333 8 -19c-7 -68.667 -35.333 -138.333 -85 -209c-14.333 -21 -32.25 -44 -53.75 -69s-38.5 -44.083 -51 -57.25
s-33.25 -34.416 -62.25 -63.75c-2.66699 -3.33301 -7 -8 -13 -14c-2.33301 -2.33301 -3.66699 -5.5 -4 -9.5s0.666992 -7.83301 3 -11.5c5.33301 -6.66699 18.667 -24.666 40 -54c16 -23 26.917 -39 32.75 -48s13.667 -21.75 23.5 -38.25s16.5 -29.833 20 -40
s7 -22.5 10.5 -37s5.58301 -29.75 6.25 -45.75c1 -6.66699 -0.666992 -13.333 -5 -20c-7.66699 -11.333 -13 -17 -16 -17zM640 576c0 -15.667 -4.83301 -33.5 -14.5 -53.5s-22.083 -37.333 -37.25 -52s-29.583 -22.167 -43.25 -22.5
c-14.667 0.333008 -29.667 7.83301 -45 22.5s-27.833 31.917 -37.5 51.75s-14.5 37.75 -14.5 53.75h192zM434 -128h-128c-4.33301 0 -9.33301 5.66699 -15 17c-4 6.66699 -6 15 -6 25c0.333008 8.66699 0.916992 16.667 1.75 24s2.41699 15 4.75 23s4.08301 14.5 5.25 19.5
s3.91699 11.75 8.25 20.25s7.33301 14.583 9 18.25s5.66699 10.583 12 20.75s10.5 16.917 12.5 20.25s7.25 11.25 15.75 23.75s14.083 20.917 16.75 25.25c4.33301 6.66699 10 10 17 10c5.33301 0 10.333 -2.33301 15 -7c31 -32 59.333 -65 85 -99c3 -3 5 -7.5 6 -13.5
s0 -12.833 -3 -20.5c-5 -9.33301 -10.75 -18.667 -17.25 -28s-11 -17.083 -13.5 -23.25s-4.25 -14.75 -5.25 -25.75c-0.666992 -6.33301 -3.08301 -12.917 -7.25 -19.75s-8.75 -10.25 -13.75 -10.25z" />
    <glyph glyph-name="uniF1D8" unicode="&#xf1d8;" 
d="M102.4 -25.5996v870.399h870.399v-870.399h-870.399z" />
    </font>
</defs>
</svg>
